<?xml version="1.0" encoding="utf-8" standalone="no"?>
<!DOCTYPE svg PUBLIC "-//W3C//DTD SVG 1.1//EN"
  "http://www.w3.org/Graphics/SVG/1.1/DTD/svg11.dtd">
<svg xmlns:xlink="http://www.w3.org/1999/xlink" width="576pt" height="432pt" viewBox="0 0 576 432" xmlns="http://www.w3.org/2000/svg" version="1.1">
 <metadata>
  <rdf:RDF xmlns:dc="http://purl.org/dc/elements/1.1/" xmlns:cc="http://creativecommons.org/ns#" xmlns:rdf="http://www.w3.org/1999/02/22-rdf-syntax-ns#">
   <cc:Work>
    <dc:type rdf:resource="http://purl.org/dc/dcmitype/StillImage"/>
    <dc:date>2024-02-26T13:25:50.138623</dc:date>
    <dc:format>image/svg+xml</dc:format>
    <dc:creator>
     <cc:Agent>
      <dc:title>Matplotlib v3.8.2, https://matplotlib.org/</dc:title>
     </cc:Agent>
    </dc:creator>
   </cc:Work>
  </rdf:RDF>
 </metadata>
 <defs>
  <style type="text/css">*{stroke-linejoin: round; stroke-linecap: butt}</style>
 </defs>
 <g id="figure_1">
  <g id="patch_1">
   <path d="M 0 432 
L 576 432 
L 576 0 
L 0 0 
z
" style="fill: #ffffff"/>
  </g>
  <g id="axes_1">
   <g id="patch_2">
    <path d="M 62.4575 178.36 
L 286.29 178.36 
L 286.29 24.4725 
L 62.4575 24.4725 
z
" style="fill: #ffffff"/>
   </g>
   <g id="matplotlib.axis_1">
    <g id="xtick_1">
     <g id="line2d_1">
      <defs>
       <path id="m1d5590d28e" d="M 0 0 
L 0 3.5 
" style="stroke: #000000; stroke-width: 0.8"/>
      </defs>
      <g>
       <use xlink:href="#m1d5590d28e" x="72.631705" y="178.36" style="stroke: #000000; stroke-width: 0.8"/>
      </g>
     </g>
     <g id="text_1">
      <!-- 5 -->
      <g transform="translate(70.131705 192.600625) scale(0.1 -0.1)">
       <defs>
        <path id="Palatino-35" d="M 813 3872 
L 755 2534 
Q 851 2586 960 2643 
Q 1069 2701 1184 2746 
Q 1299 2797 1414 2819 
Q 1530 2842 1651 2842 
Q 1933 2842 2163 2758 
Q 2394 2675 2573 2509 
Q 2758 2349 2848 2118 
Q 2938 1888 2938 1600 
Q 2938 1235 2797 928 
Q 2656 621 2374 378 
Q 2093 134 1782 9 
Q 1472 -115 1133 -128 
Q 1126 -128 1116 -128 
Q 1107 -128 1101 -128 
Q 1094 -128 1088 -128 
Q 1082 -128 1075 -128 
Q 1043 -128 1004 -125 
Q 966 -122 928 -115 
Q 883 -109 841 -105 
Q 800 -102 755 -96 
Q 704 -90 656 -74 
Q 608 -58 557 -45 
Q 512 -26 470 -13 
Q 429 0 397 13 
Q 390 38 380 64 
Q 371 90 365 122 
Q 352 147 345 172 
Q 339 198 326 224 
Q 307 275 288 329 
Q 269 384 250 442 
Q 243 467 230 492 
Q 218 518 211 544 
Q 198 570 188 598 
Q 179 627 166 653 
Q 160 678 147 704 
Q 134 730 128 762 
Q 115 787 105 812 
Q 96 838 83 864 
L 237 966 
L 531 442 
Q 563 384 604 342 
Q 646 301 710 269 
Q 774 243 841 217 
Q 909 192 973 179 
Q 1011 173 1052 166 
Q 1094 160 1139 154 
Q 1178 147 1216 147 
Q 1254 147 1286 147 
Q 1562 147 1766 224 
Q 1971 301 2112 454 
Q 2253 608 2323 813 
Q 2394 1018 2394 1267 
Q 2394 1523 2326 1728 
Q 2259 1933 2131 2086 
Q 1997 2240 1814 2320 
Q 1632 2400 1395 2400 
Q 1293 2400 1200 2384 
Q 1107 2368 1037 2336 
Q 960 2304 893 2256 
Q 826 2208 755 2150 
Q 749 2144 739 2134 
Q 730 2125 717 2118 
Q 710 2106 700 2099 
Q 691 2093 678 2080 
Q 672 2074 662 2064 
Q 653 2054 646 2048 
Q 634 2035 627 2028 
Q 621 2022 608 2010 
L 480 2061 
Q 486 2112 492 2240 
Q 499 2368 506 2560 
Q 512 2752 515 2963 
Q 518 3174 518 3392 
Q 518 3411 518 3433 
Q 518 3456 518 3482 
Q 518 3507 518 3532 
Q 518 3558 518 3584 
Q 518 3693 518 3795 
Q 518 3898 518 4000 
Q 518 4102 515 4192 
Q 512 4282 506 4365 
L 538 4410 
Q 563 4397 585 4393 
Q 608 4390 634 4390 
Q 653 4384 675 4384 
Q 698 4384 723 4384 
Q 742 4384 764 4384 
Q 787 4384 813 4384 
Q 838 4378 860 4378 
Q 883 4378 909 4378 
Q 998 4371 1091 4368 
Q 1184 4365 1280 4365 
Q 1370 4365 1462 4365 
Q 1555 4365 1651 4365 
Q 1747 4365 1840 4365 
Q 1933 4365 2022 4365 
Q 2112 4365 2205 4368 
Q 2298 4371 2394 4378 
Q 2419 4378 2441 4378 
Q 2464 4378 2490 4384 
Q 2509 4384 2531 4384 
Q 2554 4384 2579 4384 
Q 2605 4384 2627 4384 
Q 2650 4384 2675 4390 
Q 2694 4390 2716 4393 
Q 2739 4397 2765 4397 
L 2797 4378 
Q 2790 4352 2787 4333 
Q 2784 4314 2784 4301 
Q 2784 4282 2784 4266 
Q 2784 4250 2784 4237 
Q 2784 4218 2784 4202 
Q 2784 4186 2784 4173 
Q 2784 4154 2784 4138 
Q 2784 4122 2784 4109 
Q 2784 4077 2784 4045 
Q 2784 4013 2784 3981 
Q 2784 3968 2784 3952 
Q 2784 3936 2790 3923 
Q 2790 3904 2793 3888 
Q 2797 3872 2797 3859 
L 2765 3840 
Q 2541 3827 2323 3827 
Q 2106 3827 1894 3834 
Q 1683 3834 1472 3840 
Q 1261 3846 1050 3853 
Q 1037 3853 1021 3853 
Q 1005 3853 992 3853 
Q 973 3853 957 3853 
Q 941 3853 928 3853 
Q 915 3853 899 3853 
Q 883 3853 870 3859 
Q 858 3859 842 3859 
Q 826 3859 813 3859 
L 813 3872 
L 813 3872 
z
" transform="scale(0.015625)"/>
       </defs>
       <use xlink:href="#Palatino-35"/>
      </g>
     </g>
    </g>
    <g id="xtick_2">
     <g id="line2d_2">
      <g>
       <use xlink:href="#m1d5590d28e" x="123.502727" y="178.36" style="stroke: #000000; stroke-width: 0.8"/>
      </g>
     </g>
     <g id="text_2">
      <!-- 10 -->
      <g transform="translate(118.502727 192.600625) scale(0.1 -0.1)">
       <defs>
        <path id="Palatino-31" d="M 429 3552 
L 384 3827 
Q 397 3821 406 3821 
Q 416 3821 422 3827 
Q 429 3827 435 3827 
Q 442 3827 448 3834 
Q 448 3834 454 3837 
Q 461 3840 467 3840 
Q 557 3872 646 3907 
Q 736 3942 832 3974 
Q 922 4013 1011 4048 
Q 1101 4083 1190 4122 
Q 1370 4198 1533 4275 
Q 1696 4352 1837 4429 
L 1926 4410 
L 1926 614 
Q 1926 550 1929 499 
Q 1933 448 1939 403 
Q 1952 358 1968 323 
Q 1984 288 2010 269 
Q 2042 243 2077 227 
Q 2112 211 2157 198 
Q 2195 192 2243 185 
Q 2291 179 2342 179 
L 2675 173 
L 2675 -19 
Q 2643 -19 2614 -19 
Q 2586 -19 2554 -19 
Q 2528 -13 2502 -13 
Q 2477 -13 2451 -13 
Q 2400 -13 2352 -13 
Q 2304 -13 2259 -13 
Q 2163 -6 2083 -3 
Q 2003 0 1933 0 
Q 1862 0 1795 0 
Q 1728 0 1658 0 
Q 1594 0 1520 0 
Q 1446 0 1376 0 
Q 1306 0 1222 -3 
Q 1139 -6 1050 -13 
Q 1005 -13 950 -13 
Q 896 -13 845 -13 
Q 819 -13 790 -13 
Q 762 -13 736 -19 
Q 704 -19 675 -19 
Q 646 -19 614 -19 
L 614 173 
L 973 192 
Q 1024 186 1069 189 
Q 1114 192 1158 198 
Q 1197 211 1235 227 
Q 1274 243 1306 269 
Q 1331 288 1347 323 
Q 1363 358 1370 403 
Q 1382 448 1385 496 
Q 1389 544 1389 602 
L 1389 3718 
Q 1389 3712 1389 3715 
Q 1389 3718 1389 3725 
Q 1389 3731 1389 3737 
Q 1389 3744 1389 3750 
Q 1389 3763 1389 3776 
Q 1389 3789 1382 3808 
Q 1382 3821 1379 3833 
Q 1376 3846 1376 3859 
Q 1370 3891 1360 3904 
Q 1350 3917 1338 3917 
Q 1338 3917 1338 3917 
Q 1338 3917 1338 3917 
Q 1331 3917 1331 3917 
Q 1331 3917 1331 3917 
Q 1331 3917 1331 3917 
Q 1331 3917 1331 3917 
Q 1325 3910 1321 3910 
Q 1318 3910 1318 3910 
Q 1318 3910 1318 3910 
Q 1318 3910 1318 3910 
L 493 3552 
L 429 3552 
L 429 3552 
L 429 3552 
z
" transform="scale(0.015625)"/>
        <path id="Palatino-30" d="M 1523 -128 
Q 1190 -115 940 13 
Q 691 141 525 390 
Q 352 640 269 1053 
Q 186 1466 186 2035 
Q 186 2106 186 2176 
Q 186 2246 192 2317 
Q 192 2387 198 2460 
Q 205 2534 211 2611 
Q 243 2944 332 3251 
Q 422 3558 576 3834 
Q 730 4115 1011 4256 
Q 1293 4397 1702 4397 
Q 2048 4397 2294 4259 
Q 2541 4122 2682 3840 
Q 2829 3565 2902 3203 
Q 2976 2842 2976 2400 
Q 2976 2298 2973 2192 
Q 2970 2086 2963 1978 
Q 2957 1869 2950 1757 
Q 2944 1645 2931 1536 
Q 2886 1222 2790 934 
Q 2694 646 2547 384 
Q 2400 128 2144 0 
Q 1888 -128 1523 -128 
L 1523 -128 
L 1523 -128 
z
M 1587 4186 
Q 1581 4173 1577 4173 
Q 1574 4173 1574 4173 
Q 1568 4173 1568 4173 
Q 1568 4173 1568 4173 
Q 1562 4173 1558 4173 
Q 1555 4173 1555 4173 
Q 1549 4173 1545 4173 
Q 1542 4173 1542 4173 
Q 1261 4173 1088 4019 
Q 915 3866 851 3558 
Q 787 3251 755 2915 
Q 723 2579 723 2214 
Q 723 1747 768 1366 
Q 813 986 896 685 
Q 986 384 1162 233 
Q 1338 83 1606 83 
Q 1869 83 2038 220 
Q 2208 358 2285 634 
Q 2355 915 2393 1216 
Q 2432 1517 2438 1850 
Q 2438 1862 2438 1868 
Q 2438 1875 2438 1888 
Q 2438 1894 2438 1904 
Q 2438 1914 2438 1920 
Q 2438 1933 2438 1939 
Q 2438 1946 2438 1958 
Q 2438 1965 2438 1974 
Q 2438 1984 2438 1990 
Q 2438 2445 2396 2835 
Q 2355 3226 2278 3539 
Q 2202 3859 2029 4016 
Q 1856 4173 1587 4173 
L 1587 4186 
L 1587 4186 
z
" transform="scale(0.015625)"/>
       </defs>
       <use xlink:href="#Palatino-31"/>
       <use xlink:href="#Palatino-30" x="49.999985"/>
      </g>
     </g>
    </g>
    <g id="xtick_3">
     <g id="line2d_3">
      <g>
       <use xlink:href="#m1d5590d28e" x="174.37375" y="178.36" style="stroke: #000000; stroke-width: 0.8"/>
      </g>
     </g>
     <g id="text_3">
      <!-- 15 -->
      <g transform="translate(169.37375 192.600625) scale(0.1 -0.1)">
       <use xlink:href="#Palatino-31"/>
       <use xlink:href="#Palatino-35" x="49.999985"/>
      </g>
     </g>
    </g>
    <g id="xtick_4">
     <g id="line2d_4">
      <g>
       <use xlink:href="#m1d5590d28e" x="225.244773" y="178.36" style="stroke: #000000; stroke-width: 0.8"/>
      </g>
     </g>
     <g id="text_4">
      <!-- 20 -->
      <g transform="translate(220.244773 192.600625) scale(0.1 -0.1)">
       <defs>
        <path id="Palatino-32" d="M 102 147 
L 1190 1306 
Q 1498 1619 1696 1875 
Q 1894 2131 1990 2323 
Q 2086 2515 2134 2684 
Q 2182 2854 2182 3002 
Q 2182 3194 2124 3357 
Q 2067 3520 1952 3648 
Q 1837 3776 1683 3840 
Q 1530 3904 1325 3904 
Q 1165 3904 1033 3875 
Q 902 3846 806 3795 
Q 704 3744 633 3638 
Q 563 3533 518 3373 
L 435 3091 
L 250 3091 
Q 256 3110 259 3136 
Q 262 3162 269 3187 
Q 269 3213 272 3241 
Q 275 3270 282 3296 
Q 288 3347 294 3401 
Q 301 3456 307 3514 
Q 307 3526 307 3536 
Q 307 3546 307 3552 
Q 307 3558 307 3564 
Q 307 3571 314 3578 
Q 314 3584 314 3590 
Q 314 3597 314 3603 
Q 320 3642 323 3686 
Q 326 3731 333 3776 
Q 339 3821 345 3862 
Q 352 3904 358 3949 
Q 467 4070 588 4156 
Q 710 4243 851 4294 
Q 992 4346 1139 4371 
Q 1286 4397 1446 4397 
Q 1798 4397 2048 4307 
Q 2298 4218 2451 4032 
Q 2605 3853 2681 3645 
Q 2758 3437 2758 3200 
Q 2758 3117 2748 3033 
Q 2739 2950 2720 2874 
Q 2701 2797 2672 2720 
Q 2643 2643 2611 2573 
Q 2560 2470 2493 2371 
Q 2426 2272 2342 2170 
Q 2259 2067 2160 1955 
Q 2061 1843 1946 1715 
L 781 493 
Q 915 480 1052 480 
Q 1190 480 1331 486 
Q 1472 486 1609 492 
Q 1747 499 1888 506 
Q 1920 506 1955 506 
Q 1990 506 2029 506 
Q 2061 506 2096 509 
Q 2131 512 2163 512 
Q 2234 512 2304 515 
Q 2374 518 2445 525 
Q 2477 525 2512 525 
Q 2547 525 2579 531 
Q 2611 531 2646 531 
Q 2682 531 2714 531 
Q 2784 531 2854 534 
Q 2925 538 2995 544 
Q 2989 506 2985 467 
Q 2982 429 2982 390 
Q 2982 352 2982 317 
Q 2982 282 2982 250 
Q 2982 230 2982 211 
Q 2982 192 2982 173 
Q 2982 154 2982 138 
Q 2982 122 2989 109 
Q 2989 102 2989 92 
Q 2989 83 2989 77 
Q 2989 64 2989 57 
Q 2989 51 2989 38 
Q 2989 32 2989 22 
Q 2989 13 2995 6 
Q 2995 0 2995 -6 
Q 2995 -13 2995 -19 
Q 2963 -19 2931 -19 
Q 2899 -19 2874 -19 
Q 2842 -13 2810 -13 
Q 2778 -13 2746 -13 
Q 2682 -13 2621 -13 
Q 2560 -13 2502 -13 
Q 2438 -6 2377 -6 
Q 2317 -6 2259 -6 
Q 2195 -6 2137 -6 
Q 2080 -6 2022 -6 
Q 1958 0 1897 0 
Q 1837 0 1779 0 
Q 1715 0 1654 0 
Q 1594 0 1536 0 
Q 1414 0 1292 0 
Q 1171 0 1050 0 
Q 928 0 809 -3 
Q 691 -6 576 -13 
Q 550 -13 518 -13 
Q 486 -13 461 -13 
Q 429 -13 400 -13 
Q 371 -13 339 -13 
Q 314 -13 282 -13 
Q 250 -13 224 -19 
Q 192 -19 163 -19 
Q 134 -19 102 -19 
L 102 147 
L 102 147 
L 102 147 
z
" transform="scale(0.015625)"/>
       </defs>
       <use xlink:href="#Palatino-32"/>
       <use xlink:href="#Palatino-30" x="49.999985"/>
      </g>
     </g>
    </g>
    <g id="xtick_5">
     <g id="line2d_5">
      <g>
       <use xlink:href="#m1d5590d28e" x="276.115795" y="178.36" style="stroke: #000000; stroke-width: 0.8"/>
      </g>
     </g>
     <g id="text_5">
      <!-- 25 -->
      <g transform="translate(271.115795 192.600625) scale(0.1 -0.1)">
       <use xlink:href="#Palatino-32"/>
       <use xlink:href="#Palatino-35" x="49.999985"/>
      </g>
     </g>
    </g>
    <g id="text_6">
     <!-- User Count -->
     <g transform="translate(146.367578 207.364375) scale(0.11 -0.11)">
      <defs>
       <path id="PalatinoLinotype-Roman-55" d="M 94 4394 
L 119 4416 
Q 894 4391 1013 4391 
Q 1119 4391 1909 4416 
L 1934 4394 
L 1934 4238 
L 1909 4216 
Q 1694 4209 1576 4196 
Q 1459 4184 1406 4150 
Q 1353 4116 1336 3989 
Q 1319 3863 1319 3638 
L 1313 2919 
L 1313 1925 
Q 1313 1434 1333 1204 
Q 1353 975 1420 817 
Q 1488 659 1625 545 
Q 1763 431 2019 359 
Q 2275 288 2600 288 
Q 2944 288 3242 383 
Q 3541 478 3697 659 
Q 3853 841 3901 1136 
Q 3950 1431 3950 1956 
L 3950 2919 
Q 3950 3163 3942 3589 
Q 3934 4016 3904 4080 
Q 3875 4144 3795 4176 
Q 3716 4209 3353 4216 
L 3328 4241 
L 3328 4388 
L 3353 4416 
Q 3816 4391 4094 4391 
Q 4331 4391 4831 4416 
L 4859 4391 
L 4859 4241 
L 4831 4216 
Q 4538 4209 4448 4192 
Q 4359 4175 4323 4140 
Q 4288 4106 4270 4034 
Q 4253 3963 4247 3622 
L 4238 2919 
L 4238 1969 
Q 4238 1400 4194 1072 
Q 4150 744 3998 533 
Q 3847 322 3639 180 
Q 3431 38 3106 -39 
Q 2781 -116 2431 -116 
Q 1994 -116 1658 -19 
Q 1322 78 1128 237 
Q 934 397 850 573 
Q 766 750 741 989 
Q 716 1228 716 1719 
L 716 2919 
L 709 3528 
Q 706 3884 692 3987 
Q 678 4091 648 4125 
Q 619 4159 534 4181 
Q 450 4203 119 4216 
L 94 4238 
L 94 4394 
z
M 2534 4647 
L 2534 4647 
z
M 2516 -188 
L 2516 -188 
z
" transform="scale(0.015625)"/>
       <path id="PalatinoLinotype-Roman-73" d="M 316 919 
L 450 919 
L 478 891 
Q 484 628 509 441 
Q 606 294 843 201 
Q 1081 109 1313 109 
Q 1644 109 1842 287 
Q 2041 466 2041 713 
Q 2041 847 1969 945 
Q 1897 1044 1751 1108 
Q 1606 1172 1231 1259 
Q 909 1334 781 1376 
Q 653 1419 534 1519 
Q 416 1619 353 1764 
Q 291 1909 291 2084 
Q 291 2503 623 2754 
Q 956 3006 1453 3006 
Q 1663 3006 1909 2948 
Q 2156 2891 2284 2838 
L 2313 2794 
Q 2288 2669 2281 2138 
L 2253 2109 
L 2128 2109 
L 2100 2138 
Q 2088 2328 2066 2404 
Q 2044 2481 1953 2570 
Q 1863 2659 1697 2720 
Q 1531 2781 1347 2781 
Q 1156 2781 1026 2725 
Q 897 2669 817 2555 
Q 738 2441 738 2278 
Q 738 2159 786 2065 
Q 834 1972 934 1914 
Q 1034 1856 1144 1831 
L 1484 1744 
Q 1922 1638 2111 1559 
Q 2300 1481 2403 1323 
Q 2506 1166 2506 941 
Q 2506 509 2150 200 
Q 1794 -109 1234 -109 
Q 1038 -109 745 -65 
Q 453 -22 247 31 
L 231 72 
L 263 281 
Q 278 378 281 476 
Q 284 575 288 891 
L 316 919 
z
" transform="scale(0.015625)"/>
       <path id="PalatinoLinotype-Roman-65" d="M 2763 459 
L 2663 234 
Q 2338 25 2083 -37 
Q 1828 -100 1628 -100 
Q 1253 -100 917 47 
Q 581 194 370 544 
Q 159 894 159 1388 
Q 159 1716 240 1980 
Q 322 2244 411 2372 
Q 500 2500 712 2656 
Q 925 2813 1162 2906 
Q 1400 3000 1675 3000 
Q 2050 3000 2336 2823 
Q 2622 2647 2737 2372 
Q 2853 2097 2853 1788 
Q 2853 1691 2844 1600 
L 2809 1566 
Q 2597 1519 2237 1503 
Q 1878 1488 1763 1488 
L 759 1488 
Q 766 841 1084 534 
Q 1403 228 1866 228 
Q 2084 228 2286 303 
Q 2488 378 2713 513 
L 2763 459 
z
M 759 1738 
Q 816 1728 1192 1715 
Q 1569 1703 1750 1703 
Q 2184 1703 2278 1719 
Q 2281 1794 2281 1834 
Q 2281 2319 2084 2555 
Q 1888 2791 1547 2791 
Q 1175 2791 967 2525 
Q 759 2259 759 1738 
z
M 1631 3175 
L 1631 3175 
z
M 1594 -188 
L 1594 -188 
z
" transform="scale(0.015625)"/>
       <path id="PalatinoLinotype-Roman-72" d="M 1200 2978 
L 1259 2938 
Q 1241 2756 1231 2294 
L 1466 2591 
Q 1581 2738 1670 2817 
Q 1759 2897 1878 2940 
Q 1997 2984 2122 2984 
Q 2259 2984 2381 2928 
L 2403 2884 
Q 2353 2469 2347 2153 
L 2206 2153 
Q 2081 2441 1803 2441 
Q 1609 2441 1465 2317 
Q 1322 2194 1273 2008 
Q 1225 1822 1225 1538 
L 1225 1191 
Q 1225 1097 1237 731 
Q 1250 366 1264 309 
Q 1278 253 1308 226 
Q 1338 200 1386 190 
Q 1434 181 1831 159 
L 1859 134 
L 1859 3 
L 1831 -25 
Q 1416 0 963 0 
Q 603 0 213 -25 
L 184 3 
L 184 134 
L 213 159 
Q 516 178 555 187 
Q 594 197 623 226 
Q 653 256 664 317 
Q 675 378 689 720 
Q 703 1063 703 1238 
L 703 1853 
Q 703 1978 690 2193 
Q 678 2409 670 2459 
Q 663 2509 622 2532 
Q 581 2556 459 2556 
L 197 2559 
L 169 2584 
L 169 2719 
L 194 2744 
Q 791 2816 1200 2978 
z
" transform="scale(0.015625)"/>
       <path id="PalatinoLinotype-Roman-20" transform="scale(0.015625)"/>
       <path id="PalatinoLinotype-Roman-43" d="M 4359 528 
L 4241 238 
Q 3547 -116 2759 -116 
Q 1631 -116 926 525 
Q 222 1166 222 2200 
Q 222 2913 573 3445 
Q 925 3978 1501 4242 
Q 2078 4506 2797 4506 
Q 3213 4506 3619 4418 
Q 4025 4331 4297 4209 
L 4319 4178 
Q 4247 4003 4184 3313 
L 4163 3288 
L 4016 3288 
L 3991 3313 
L 3959 3844 
Q 3731 4025 3407 4126 
Q 3084 4228 2734 4228 
Q 2206 4228 1787 4001 
Q 1369 3775 1137 3345 
Q 906 2916 906 2294 
Q 906 1669 1178 1197 
Q 1450 725 1920 472 
Q 2391 219 3019 219 
Q 3297 219 3553 272 
Q 3809 325 3979 403 
Q 4150 481 4306 594 
L 4359 528 
z
" transform="scale(0.015625)"/>
       <path id="PalatinoLinotype-Roman-6f" d="M 213 1431 
Q 213 1803 366 2148 
Q 519 2494 898 2745 
Q 1278 2997 1800 2997 
Q 2456 2997 2868 2583 
Q 3281 2169 3281 1519 
Q 3281 803 2807 340 
Q 2334 -122 1666 -122 
Q 1228 -122 884 114 
Q 541 350 377 690 
Q 213 1031 213 1431 
z
M 803 1647 
Q 803 1209 915 864 
Q 1028 519 1272 309 
Q 1516 100 1828 100 
Q 2197 100 2437 392 
Q 2678 684 2678 1272 
Q 2678 1938 2417 2363 
Q 2156 2788 1666 2788 
Q 1259 2788 1031 2494 
Q 803 2200 803 1647 
z
M 1750 3175 
L 1750 3175 
z
M 1703 -188 
L 1703 -188 
z
" transform="scale(0.015625)"/>
       <path id="PalatinoLinotype-Roman-75" d="M 1081 2978 
L 1141 2938 
Q 1106 2528 1106 1897 
L 1106 1169 
Q 1106 769 1167 612 
Q 1228 456 1378 373 
Q 1528 291 1734 291 
Q 1963 291 2150 380 
Q 2338 469 2464 631 
Q 2591 794 2609 850 
Q 2628 906 2634 1166 
L 2644 1516 
L 2644 1853 
Q 2644 1978 2631 2193 
Q 2619 2409 2611 2459 
Q 2603 2509 2562 2532 
Q 2522 2556 2400 2556 
L 2138 2559 
L 2109 2584 
L 2109 2719 
L 2134 2744 
Q 2731 2816 3141 2978 
L 3200 2938 
Q 3166 2528 3166 1897 
L 3166 1347 
Q 3166 1300 3181 581 
Q 3188 316 3214 258 
Q 3241 200 3287 176 
Q 3334 153 3566 153 
L 3653 153 
L 3681 128 
L 3681 3 
L 3656 -25 
Q 3216 0 3066 0 
Q 2875 0 2625 -22 
L 2597 3 
Q 2616 322 2625 544 
Q 2428 391 2175 134 
Q 2078 38 1897 -28 
Q 1716 -94 1484 -94 
Q 1134 -94 939 17 
Q 744 128 662 323 
Q 581 519 581 997 
L 584 1244 
L 584 1853 
Q 584 1978 571 2193 
Q 559 2409 551 2459 
Q 544 2509 503 2532 
Q 463 2556 341 2556 
L 78 2559 
L 50 2584 
L 50 2719 
L 75 2744 
Q 672 2816 1081 2978 
z
M 1828 3175 
L 1828 3175 
z
M 1859 -188 
L 1859 -188 
z
" transform="scale(0.015625)"/>
       <path id="PalatinoLinotype-Roman-6e" d="M 1069 2978 
L 1128 2938 
Q 1109 2728 1103 2388 
Q 1353 2594 1578 2806 
Q 1644 2866 1701 2894 
Q 1759 2922 1893 2953 
Q 2028 2984 2169 2984 
Q 2406 2984 2629 2887 
Q 2853 2791 2967 2658 
Q 3081 2525 3125 2344 
Q 3169 2163 3169 1897 
L 3169 1347 
Q 3169 1294 3184 569 
Q 3191 272 3250 215 
Q 3309 159 3638 159 
L 3663 134 
L 3663 0 
L 3638 -25 
Q 3241 0 3100 0 
Q 3019 0 2644 -25 
L 2606 9 
Q 2647 416 2647 1069 
L 2647 1478 
Q 2647 1847 2630 2009 
Q 2613 2172 2525 2305 
Q 2438 2438 2291 2511 
Q 2144 2584 1941 2584 
Q 1778 2584 1662 2551 
Q 1547 2519 1403 2417 
Q 1259 2316 1190 2227 
Q 1122 2138 1108 2061 
Q 1094 1984 1094 1734 
L 1094 1191 
Q 1094 1122 1106 748 
Q 1119 375 1133 312 
Q 1147 250 1175 222 
Q 1203 194 1243 186 
Q 1284 178 1581 159 
L 1609 134 
L 1609 3 
L 1584 -25 
Q 1194 0 831 0 
Q 472 0 81 -25 
L 53 3 
L 53 134 
L 81 159 
Q 384 178 423 187 
Q 463 197 492 226 
Q 522 256 533 317 
Q 544 378 558 720 
Q 572 1063 572 1238 
L 572 1853 
Q 572 1978 559 2193 
Q 547 2409 539 2459 
Q 531 2509 490 2532 
Q 450 2556 328 2556 
L 66 2559 
L 38 2584 
L 38 2719 
L 63 2744 
Q 659 2816 1069 2978 
z
" transform="scale(0.015625)"/>
       <path id="PalatinoLinotype-Roman-74" d="M 144 2453 
L 144 2534 
L 166 2566 
Q 459 2675 641 2769 
Q 641 3584 622 3719 
Q 944 3831 1150 3959 
L 1225 3897 
Q 1194 3700 1150 2753 
Q 1306 2750 1488 2750 
Q 1856 2750 2016 2769 
L 2038 2747 
L 1978 2484 
L 1953 2456 
Q 1794 2459 1600 2459 
Q 1425 2459 1150 2456 
L 1131 1184 
Q 1131 744 1151 608 
Q 1172 472 1264 395 
Q 1356 319 1538 319 
Q 1747 319 1925 428 
L 2000 316 
Q 1925 263 1641 3 
Q 1478 -72 1309 -72 
Q 606 -72 606 609 
Q 606 859 619 1034 
Q 622 1088 622 1144 
L 622 2441 
L 494 2441 
Q 353 2441 172 2428 
L 144 2453 
z
" transform="scale(0.015625)"/>
      </defs>
      <use xlink:href="#PalatinoLinotype-Roman-55"/>
      <use xlink:href="#PalatinoLinotype-Roman-73" x="77.783203"/>
      <use xlink:href="#PalatinoLinotype-Roman-65" x="120.166016"/>
      <use xlink:href="#PalatinoLinotype-Roman-72" x="168.066406"/>
      <use xlink:href="#PalatinoLinotype-Roman-20" x="207.568359"/>
      <use xlink:href="#PalatinoLinotype-Roman-43" x="232.568359"/>
      <use xlink:href="#PalatinoLinotype-Roman-6f" x="303.466797"/>
      <use xlink:href="#PalatinoLinotype-Roman-75" x="358.056641"/>
      <use xlink:href="#PalatinoLinotype-Roman-6e" x="418.359375"/>
      <use xlink:href="#PalatinoLinotype-Roman-74" x="476.5625"/>
     </g>
    </g>
   </g>
   <g id="matplotlib.axis_2">
    <g id="ytick_1">
     <g id="line2d_6">
      <defs>
       <path id="m5c162f45b4" d="M 0 0 
L -3.5 0 
" style="stroke: #000000; stroke-width: 0.8"/>
      </defs>
      <g>
       <use xlink:href="#m5c162f45b4" x="62.4575" y="173.926154" style="stroke: #000000; stroke-width: 0.8"/>
      </g>
     </g>
     <g id="text_7">
      <!-- 0.5 -->
      <g transform="translate(42.9575 177.546466) scale(0.1 -0.1)">
       <defs>
        <path id="Palatino-2e" d="M 794 -32 
Q 717 -32 653 -9 
Q 589 13 538 70 
Q 480 128 454 192 
Q 429 256 429 326 
Q 429 397 454 461 
Q 480 525 538 582 
Q 595 640 659 669 
Q 723 698 794 698 
Q 864 698 931 669 
Q 998 640 1056 582 
Q 1114 525 1142 461 
Q 1171 397 1171 326 
Q 1171 256 1142 192 
Q 1114 128 1056 70 
Q 998 13 934 -9 
Q 870 -32 794 -32 
L 794 -32 
L 794 -32 
z
" transform="scale(0.015625)"/>
       </defs>
       <use xlink:href="#Palatino-30"/>
       <use xlink:href="#Palatino-2e" x="49.999985"/>
       <use xlink:href="#Palatino-35" x="74.999969"/>
      </g>
     </g>
    </g>
    <g id="ytick_2">
     <g id="line2d_7">
      <g>
       <use xlink:href="#m5c162f45b4" x="62.4575" y="131.456833" style="stroke: #000000; stroke-width: 0.8"/>
      </g>
     </g>
     <g id="text_8">
      <!-- 1.0 -->
      <g transform="translate(42.9575 135.077146) scale(0.1 -0.1)">
       <use xlink:href="#Palatino-31"/>
       <use xlink:href="#Palatino-2e" x="49.999985"/>
       <use xlink:href="#Palatino-30" x="74.999969"/>
      </g>
     </g>
    </g>
    <g id="ytick_3">
     <g id="line2d_8">
      <g>
       <use xlink:href="#m5c162f45b4" x="62.4575" y="88.987513" style="stroke: #000000; stroke-width: 0.8"/>
      </g>
     </g>
     <g id="text_9">
      <!-- 1.5 -->
      <g transform="translate(42.9575 92.607826) scale(0.1 -0.1)">
       <use xlink:href="#Palatino-31"/>
       <use xlink:href="#Palatino-2e" x="49.999985"/>
       <use xlink:href="#Palatino-35" x="74.999969"/>
      </g>
     </g>
    </g>
    <g id="ytick_4">
     <g id="line2d_9">
      <g>
       <use xlink:href="#m5c162f45b4" x="62.4575" y="46.518193" style="stroke: #000000; stroke-width: 0.8"/>
      </g>
     </g>
     <g id="text_10">
      <!-- 2.0 -->
      <g transform="translate(42.9575 50.138505) scale(0.1 -0.1)">
       <use xlink:href="#Palatino-32"/>
       <use xlink:href="#Palatino-2e" x="49.999985"/>
       <use xlink:href="#Palatino-30" x="74.999969"/>
      </g>
     </g>
    </g>
    <g id="text_11">
     <!-- Concurrent Users Throughput -->
     <g transform="translate(35.86375 175.490937) rotate(-90) scale(0.11 -0.11)">
      <defs>
       <path id="PalatinoLinotype-Roman-63" d="M 2713 334 
L 2588 125 
Q 2184 -97 1688 -97 
Q 1000 -97 625 312 
Q 250 722 250 1369 
Q 250 1663 314 1892 
Q 378 2122 476 2272 
Q 575 2422 694 2509 
Q 813 2597 1095 2753 
Q 1378 2909 1522 2957 
Q 1666 3006 1919 3006 
Q 2403 3006 2713 2822 
Q 2653 2469 2622 2034 
L 2594 2009 
L 2466 2009 
L 2438 2038 
Q 2425 2300 2403 2390 
Q 2381 2481 2154 2584 
Q 1928 2688 1672 2688 
Q 1416 2688 1216 2580 
Q 1016 2472 914 2226 
Q 813 1981 813 1641 
Q 813 1353 894 1079 
Q 975 806 1108 626 
Q 1241 447 1459 337 
Q 1678 228 1947 228 
Q 2116 228 2277 272 
Q 2438 316 2647 416 
L 2713 334 
z
" transform="scale(0.015625)"/>
       <path id="PalatinoLinotype-Roman-54" d="M 3772 4416 
L 3800 4388 
Q 3772 4106 3772 3406 
L 3747 3381 
L 3600 3381 
L 3575 3409 
L 3541 3697 
Q 3516 3928 3502 3979 
Q 3488 4031 3456 4054 
Q 3425 4078 3253 4093 
Q 3081 4109 2869 4109 
L 2278 4109 
Q 2253 3403 2253 3294 
L 2253 1472 
L 2259 863 
Q 2263 509 2277 404 
Q 2291 300 2320 267 
Q 2350 234 2434 211 
Q 2519 188 2853 175 
L 2875 156 
L 2875 0 
L 2853 -25 
Q 2053 0 1959 0 
Q 1859 0 1069 -25 
L 1044 0 
L 1044 156 
L 1069 175 
Q 1363 188 1458 206 
Q 1553 225 1586 254 
Q 1619 284 1641 381 
Q 1663 478 1663 813 
L 1669 1472 
L 1669 3294 
Q 1669 3344 1644 4109 
L 1178 4109 
Q 891 4109 681 4096 
Q 472 4084 439 4032 
Q 406 3981 378 3697 
L 347 3409 
L 319 3381 
L 175 3381 
L 150 3406 
Q 144 4159 122 4388 
L 150 4416 
Q 694 4391 1959 4391 
Q 3250 4391 3772 4416 
z
" transform="scale(0.015625)"/>
       <path id="PalatinoLinotype-Roman-68" d="M 1063 4628 
L 1122 4591 
Q 1088 4231 1088 3150 
L 1088 2378 
Q 1350 2594 1575 2806 
Q 1641 2866 1700 2894 
Q 1759 2922 1892 2953 
Q 2025 2984 2166 2984 
Q 2403 2984 2626 2887 
Q 2850 2791 2964 2658 
Q 3078 2525 3122 2344 
Q 3166 2163 3166 1897 
L 3166 1347 
Q 3166 1294 3181 569 
Q 3191 272 3248 215 
Q 3306 159 3634 159 
L 3659 134 
L 3659 0 
L 3634 -25 
Q 3238 0 3097 0 
Q 3025 0 2641 -25 
L 2603 9 
Q 2644 416 2644 1069 
L 2644 1478 
Q 2644 1847 2626 2009 
Q 2609 2172 2521 2305 
Q 2434 2438 2289 2511 
Q 2144 2584 1938 2584 
Q 1725 2584 1583 2526 
Q 1441 2469 1294 2331 
Q 1147 2194 1117 2101 
Q 1088 2009 1088 1747 
L 1088 1191 
Q 1088 1122 1100 748 
Q 1113 375 1127 312 
Q 1141 250 1169 222 
Q 1197 194 1237 186 
Q 1278 178 1575 159 
L 1603 134 
L 1603 3 
L 1578 -25 
Q 1188 0 825 0 
Q 466 0 75 -25 
L 47 3 
L 47 134 
L 75 159 
Q 378 178 417 187 
Q 456 197 486 226 
Q 516 256 527 317 
Q 538 378 552 720 
Q 566 1063 566 1238 
L 566 2856 
L 553 3519 
Q 544 3866 533 4000 
Q 522 4134 503 4159 
Q 484 4184 437 4196 
Q 391 4209 59 4209 
L 31 4238 
L 31 4369 
L 56 4397 
Q 653 4466 1063 4628 
z
" transform="scale(0.015625)"/>
       <path id="PalatinoLinotype-Roman-67" d="M 3447 2763 
L 3472 2706 
Q 3344 2509 3313 2450 
L 2731 2450 
Q 2819 2278 2819 2091 
Q 2819 1869 2717 1659 
Q 2616 1450 2434 1303 
Q 2253 1156 2023 1068 
Q 1794 981 1500 981 
L 1356 981 
Q 1172 834 1119 762 
Q 1066 691 1066 616 
Q 1066 478 1192 422 
Q 1319 366 1716 366 
L 2416 375 
Q 2747 375 2923 297 
Q 3100 219 3209 17 
Q 3319 -184 3319 -409 
Q 3319 -753 3095 -1095 
Q 2872 -1438 2450 -1616 
Q 2028 -1794 1550 -1794 
Q 1278 -1794 1039 -1734 
Q 800 -1675 620 -1554 
Q 441 -1434 331 -1240 
Q 222 -1047 222 -838 
Q 222 -722 256 -595 
Q 291 -469 388 -322 
L 953 -6 
Q 681 78 611 161 
Q 541 244 541 359 
Q 541 478 619 641 
L 1122 1003 
Q 678 1119 523 1350 
Q 369 1581 369 1856 
Q 369 2109 478 2339 
Q 588 2569 808 2706 
Q 1028 2844 1301 2923 
Q 1575 3003 1800 3003 
Q 2191 3003 2544 2750 
Q 3109 2750 3447 2763 
z
M 906 2038 
Q 906 1847 981 1628 
Q 1056 1409 1223 1296 
Q 1391 1184 1600 1184 
Q 1878 1184 2079 1365 
Q 2281 1547 2281 1931 
Q 2281 2256 2097 2515 
Q 1913 2775 1575 2775 
Q 1291 2775 1098 2589 
Q 906 2403 906 2038 
z
M 1822 -59 
Q 1319 -59 1242 -71 
Q 1166 -84 1025 -178 
Q 884 -272 795 -433 
Q 706 -594 706 -794 
Q 706 -1147 968 -1369 
Q 1231 -1591 1669 -1591 
Q 1997 -1591 2275 -1453 
Q 2553 -1316 2686 -1084 
Q 2819 -853 2819 -641 
Q 2819 -428 2708 -276 
Q 2597 -125 2420 -92 
Q 2244 -59 1822 -59 
z
" transform="scale(0.015625)"/>
       <path id="PalatinoLinotype-Roman-70" d="M 1156 3016 
L 1216 2978 
Q 1184 2622 1181 2347 
Q 1606 2734 1773 2859 
Q 1941 2984 2350 2984 
Q 2606 2984 2815 2914 
Q 3025 2844 3203 2683 
Q 3381 2522 3484 2280 
Q 3588 2038 3588 1719 
Q 3588 1494 3516 1262 
Q 3444 1031 3326 834 
Q 3209 638 3139 573 
Q 3069 509 2850 381 
Q 2653 263 2459 125 
Q 2325 28 2272 0 
Q 2219 -28 2094 -56 
Q 1969 -84 1828 -84 
Q 1503 -84 1181 81 
L 1181 -584 
Q 1181 -653 1193 -1026 
Q 1206 -1400 1220 -1462 
Q 1234 -1525 1262 -1553 
Q 1291 -1581 1331 -1589 
Q 1372 -1597 1669 -1616 
L 1697 -1641 
L 1697 -1772 
L 1672 -1800 
Q 1281 -1775 922 -1775 
Q 563 -1775 172 -1800 
L 144 -1772 
L 144 -1641 
L 172 -1616 
Q 472 -1597 512 -1587 
Q 553 -1578 583 -1548 
Q 613 -1519 623 -1453 
Q 634 -1388 648 -1034 
Q 663 -681 663 -503 
L 663 1891 
Q 663 2053 648 2267 
Q 634 2481 625 2515 
Q 616 2550 580 2572 
Q 544 2594 419 2594 
L 156 2597 
L 128 2622 
L 128 2756 
L 153 2781 
Q 750 2853 1156 3016 
z
M 1181 619 
Q 1325 472 1537 364 
Q 1750 256 2006 256 
Q 2309 256 2542 409 
Q 2775 563 2903 858 
Q 3031 1153 3031 1513 
Q 3031 1803 2917 2053 
Q 2803 2303 2564 2447 
Q 2325 2591 2056 2591 
Q 1891 2591 1734 2533 
Q 1578 2475 1442 2362 
Q 1306 2250 1247 2148 
Q 1188 2047 1184 1980 
Q 1181 1913 1181 1831 
L 1181 619 
z
" transform="scale(0.015625)"/>
      </defs>
      <use xlink:href="#PalatinoLinotype-Roman-43"/>
      <use xlink:href="#PalatinoLinotype-Roman-6f" x="70.898438"/>
      <use xlink:href="#PalatinoLinotype-Roman-6e" x="125.488281"/>
      <use xlink:href="#PalatinoLinotype-Roman-63" x="183.691406"/>
      <use xlink:href="#PalatinoLinotype-Roman-75" x="228.076172"/>
      <use xlink:href="#PalatinoLinotype-Roman-72" x="288.378906"/>
      <use xlink:href="#PalatinoLinotype-Roman-72" x="327.880859"/>
      <use xlink:href="#PalatinoLinotype-Roman-65" x="367.382812"/>
      <use xlink:href="#PalatinoLinotype-Roman-6e" x="415.283203"/>
      <use xlink:href="#PalatinoLinotype-Roman-74" x="473.486328"/>
      <use xlink:href="#PalatinoLinotype-Roman-20" x="506.103516"/>
      <use xlink:href="#PalatinoLinotype-Roman-55" x="531.103516"/>
      <use xlink:href="#PalatinoLinotype-Roman-73" x="608.886719"/>
      <use xlink:href="#PalatinoLinotype-Roman-65" x="651.269531"/>
      <use xlink:href="#PalatinoLinotype-Roman-72" x="699.169922"/>
      <use xlink:href="#PalatinoLinotype-Roman-73" x="738.671875"/>
      <use xlink:href="#PalatinoLinotype-Roman-20" x="781.054688"/>
      <use xlink:href="#PalatinoLinotype-Roman-54" x="806.054688"/>
      <use xlink:href="#PalatinoLinotype-Roman-68" x="867.333984"/>
      <use xlink:href="#PalatinoLinotype-Roman-72" x="925.537109"/>
      <use xlink:href="#PalatinoLinotype-Roman-6f" x="965.039062"/>
      <use xlink:href="#PalatinoLinotype-Roman-75" x="1019.628906"/>
      <use xlink:href="#PalatinoLinotype-Roman-67" x="1079.931641"/>
      <use xlink:href="#PalatinoLinotype-Roman-68" x="1135.546875"/>
      <use xlink:href="#PalatinoLinotype-Roman-70" x="1193.75"/>
      <use xlink:href="#PalatinoLinotype-Roman-75" x="1253.857422"/>
      <use xlink:href="#PalatinoLinotype-Roman-74" x="1314.160156"/>
     </g>
    </g>
   </g>
   <g id="line2d_10">
    <path d="M 72.631705 171.365114 
L 123.502727 101.997884 
L 174.37375 78.2348 
L 225.244773 60.263916 
L 276.115795 31.467386 
" clip-path="url(#p50c1cdc6ce)" style="fill: none; stroke: #1f77b4; stroke-width: 1.5; stroke-linecap: square"/>
   </g>
   <g id="patch_3">
    <path d="M 62.4575 178.36 
L 62.4575 24.4725 
" style="fill: none; stroke: #000000; stroke-width: 0.8; stroke-linejoin: miter; stroke-linecap: square"/>
   </g>
   <g id="patch_4">
    <path d="M 286.29 178.36 
L 286.29 24.4725 
" style="fill: none; stroke: #000000; stroke-width: 0.8; stroke-linejoin: miter; stroke-linecap: square"/>
   </g>
   <g id="patch_5">
    <path d="M 62.4575 178.36 
L 286.29 178.36 
" style="fill: none; stroke: #000000; stroke-width: 0.8; stroke-linejoin: miter; stroke-linecap: square"/>
   </g>
   <g id="patch_6">
    <path d="M 62.4575 24.4725 
L 286.29 24.4725 
" style="fill: none; stroke: #000000; stroke-width: 0.8; stroke-linejoin: miter; stroke-linecap: square"/>
   </g>
   <g id="text_12">
    <!-- Concurrent Users Throughput vs User Count -->
    <g transform="translate(61.794766 18.4725) scale(0.11 -0.11)">
     <defs>
      <path id="PalatinoLinotype-Bold-43" d="M 4422 547 
L 4278 228 
Q 3619 -134 2803 -134 
Q 1172 -134 572 1041 
Q 294 1584 294 2219 
Q 294 3244 975 3853 
Q 1672 4481 2878 4481 
Q 3644 4481 4375 4203 
L 4416 4156 
Q 4309 3725 4284 3147 
L 4256 3116 
L 4072 3116 
L 4041 3150 
Q 4031 3528 4006 3675 
Q 3616 4116 2878 4116 
Q 2119 4116 1687 3634 
Q 1256 3153 1256 2328 
Q 1256 1213 2025 616 
Q 2434 297 3122 297 
Q 3747 297 4344 619 
L 4422 547 
z
" transform="scale(0.015625)"/>
      <path id="PalatinoLinotype-Bold-6f" d="M 3303 1550 
Q 3303 444 2559 53 
Q 2197 -138 1731 -138 
Q 1013 -138 636 278 
Q 259 694 259 1469 
Q 259 2541 991 2897 
Q 1350 3072 1825 3072 
Q 2822 3072 3147 2381 
Q 3303 2050 3303 1550 
z
M 2438 1294 
Q 2438 2072 2267 2408 
Q 2097 2744 1747 2744 
Q 1125 2744 1125 1622 
Q 1125 181 1822 181 
Q 2256 181 2375 659 
Q 2438 909 2438 1294 
z
M 1813 -244 
L 1813 -244 
z
M 1813 3181 
L 1813 3181 
z
" transform="scale(0.015625)"/>
      <path id="PalatinoLinotype-Bold-6e" d="M 3775 13 
L 3744 -22 
Q 3400 0 3163 0 
Q 2944 0 2525 -22 
L 2494 9 
Q 2550 706 2550 1084 
L 2550 1697 
Q 2550 2459 2000 2459 
Q 1713 2459 1550 2263 
Q 1413 2097 1413 1928 
L 1413 1344 
Q 1413 534 1453 350 
Q 1478 241 1816 234 
L 1847 203 
L 1847 13 
L 1816 -19 
Q 1550 0 1022 0 
Q 463 0 169 -22 
L 138 9 
L 138 200 
L 169 231 
Q 469 241 541 278 
Q 603 306 609 428 
Q 631 834 631 1300 
L 631 1747 
Q 631 2372 584 2466 
Q 553 2528 450 2544 
Q 413 2550 178 2559 
L 147 2591 
L 147 2766 
L 178 2800 
Q 741 2853 1363 3059 
L 1431 3019 
L 1425 2494 
L 1963 2944 
Q 2169 3028 2416 3028 
Q 2913 3028 3159 2728 
Q 3359 2484 3359 2013 
Q 3359 1959 3346 1578 
Q 3334 1197 3334 1034 
Q 3334 563 3350 433 
Q 3366 303 3422 268 
Q 3478 234 3747 228 
L 3775 197 
L 3775 13 
z
" transform="scale(0.015625)"/>
      <path id="PalatinoLinotype-Bold-63" d="M 2691 394 
L 2553 84 
Q 2128 -138 1716 -138 
Q 1019 -138 650 262 
Q 281 663 281 1359 
Q 281 2003 566 2338 
Q 644 2431 863 2584 
Q 1313 2903 1464 2965 
Q 1616 3028 1928 3028 
Q 2353 3028 2631 2900 
L 2663 2844 
Q 2659 2803 2619 2553 
L 2584 2341 
Q 2575 2288 2556 1922 
L 2525 1891 
L 2338 1891 
L 2306 1922 
Q 2288 2200 2263 2309 
Q 2125 2553 1734 2553 
Q 1072 2553 1072 1694 
Q 1072 1069 1338 709 
Q 1609 338 2103 338 
Q 2403 338 2631 466 
L 2691 394 
z
" transform="scale(0.015625)"/>
      <path id="PalatinoLinotype-Bold-75" d="M 3753 16 
L 3722 -16 
Q 3253 0 3131 0 
Q 3028 0 2825 -8 
Q 2622 -16 2522 -16 
L 2497 9 
Q 2522 266 2522 497 
Q 2359 375 1953 -22 
Q 1750 -100 1519 -100 
Q 1097 -100 853 129 
Q 609 359 609 791 
Q 609 844 615 1016 
Q 622 1188 622 1347 
L 622 1747 
Q 622 2366 575 2466 
Q 544 2528 441 2544 
Q 403 2550 166 2559 
L 134 2591 
L 134 2766 
L 166 2800 
Q 763 2853 1375 3059 
L 1444 3019 
Q 1403 2500 1403 2059 
L 1403 1450 
Q 1403 1022 1431 866 
Q 1463 678 1580 581 
Q 1697 484 1894 484 
Q 2138 484 2322 641 
Q 2497 797 2506 997 
Q 2513 1150 2513 1188 
L 2513 1747 
Q 2513 2359 2466 2466 
Q 2438 2528 2334 2544 
Q 2297 2550 2059 2559 
L 2025 2591 
L 2025 2766 
L 2059 2800 
Q 2653 2853 3269 3059 
L 3334 3019 
Q 3294 2550 3294 2059 
L 3294 1078 
Q 3294 419 3331 331 
Q 3350 288 3394 275 
Q 3469 253 3719 238 
L 3753 206 
L 3753 16 
z
M 1941 3181 
L 1941 3181 
z
M 1941 -244 
L 1941 -244 
z
" transform="scale(0.015625)"/>
      <path id="PalatinoLinotype-Bold-72" d="M 2484 3019 
L 2463 2463 
Q 2459 2325 2450 2150 
L 2319 2109 
Q 2172 2322 1913 2322 
Q 1678 2322 1525 2134 
Q 1431 2019 1431 1794 
L 1431 1063 
Q 1431 834 1453 428 
Q 1459 313 1518 278 
Q 1578 244 1953 231 
L 1984 203 
L 1984 13 
L 1953 -19 
Q 1494 0 1041 0 
Q 481 0 188 -22 
L 156 9 
L 156 200 
L 188 231 
Q 488 241 559 278 
Q 622 306 628 428 
Q 650 834 650 1300 
L 650 1747 
Q 650 2372 603 2466 
Q 572 2528 469 2544 
Q 431 2550 197 2559 
L 166 2591 
L 166 2766 
L 197 2800 
Q 759 2853 1381 3059 
L 1450 3019 
L 1444 2406 
Q 1638 2631 1913 2931 
Q 2041 3056 2263 3056 
Q 2394 3056 2484 3019 
z
" transform="scale(0.015625)"/>
      <path id="PalatinoLinotype-Bold-65" d="M 2975 1753 
Q 2975 1700 2972 1594 
L 2938 1550 
Q 2525 1438 1844 1438 
Q 1722 1438 1475 1433 
Q 1228 1428 1103 1428 
Q 1122 969 1388 669 
Q 1666 347 2113 347 
Q 2413 347 2825 553 
L 2900 463 
L 2763 153 
Q 2306 -138 1772 -138 
Q 1069 -138 680 259 
Q 291 656 291 1391 
Q 291 2263 706 2584 
Q 1281 3028 1797 3028 
Q 2356 3028 2663 2706 
Q 2975 2375 2975 1753 
z
M 2159 1834 
Q 2159 2678 1634 2678 
Q 1081 2678 1081 1841 
L 1081 1772 
Q 1263 1744 1725 1744 
Q 1966 1744 2156 1772 
Q 2159 1816 2159 1834 
z
M 1781 -244 
L 1781 -244 
z
M 1781 3181 
L 1781 3181 
z
" transform="scale(0.015625)"/>
      <path id="PalatinoLinotype-Bold-74" d="M 2081 409 
Q 2059 384 1947 278 
Q 1763 103 1631 -41 
Q 1478 -91 1322 -91 
Q 888 -91 688 163 
Q 603 272 575 416 
Q 544 588 547 866 
L 556 1613 
L 556 2394 
L 472 2394 
L 306 2388 
L 178 2388 
L 144 2416 
L 144 2497 
L 169 2544 
Q 225 2581 344 2656 
Q 484 2744 556 2803 
L 556 3228 
Q 556 3494 531 3791 
Q 766 3866 911 3923 
Q 1056 3981 1322 4113 
L 1403 4050 
Q 1366 3663 1350 3356 
L 1322 2816 
L 1425 2816 
Q 1766 2816 2013 2838 
L 2047 2803 
L 2003 2438 
L 1972 2406 
L 1322 2406 
L 1322 1347 
Q 1322 838 1334 747 
Q 1350 616 1445 534 
Q 1541 453 1703 453 
Q 1831 453 2013 522 
L 2081 409 
z
" transform="scale(0.015625)"/>
      <path id="PalatinoLinotype-Bold-20" transform="scale(0.015625)"/>
      <path id="PalatinoLinotype-Bold-55" d="M 4813 4169 
L 4781 4138 
Q 4413 4138 4366 3941 
Q 4341 3831 4328 3466 
Q 4319 3194 4319 2681 
L 4319 1719 
Q 4319 791 3953 394 
Q 3469 -131 2572 -131 
Q 1753 -131 1294 141 
Q 906 372 788 797 
Q 713 1069 713 2216 
L 713 3022 
Q 713 3766 672 3991 
Q 656 4081 566 4106 
Q 519 4119 200 4138 
L 169 4169 
L 169 4378 
L 200 4409 
Q 500 4391 1163 4391 
Q 1838 4391 2122 4409 
L 2153 4378 
L 2153 4169 
L 2122 4138 
Q 1803 4119 1756 4106 
Q 1666 4081 1650 3991 
Q 1609 3766 1609 3022 
L 1609 2378 
Q 1609 1197 1716 931 
Q 1928 406 2763 406 
Q 3309 406 3616 675 
Q 3759 803 3815 934 
Q 3872 1066 3903 1341 
Q 3931 1597 3931 1859 
L 3931 2509 
Q 3931 3328 3925 3628 
Q 3919 3909 3888 3994 
Q 3863 4056 3778 4091 
Q 3706 4119 3394 4138 
L 3363 4169 
L 3363 4378 
L 3394 4409 
Q 3666 4391 3953 4391 
Q 4169 4391 4781 4409 
L 4813 4378 
L 4813 4169 
z
M 2572 4588 
L 2572 4588 
z
M 2572 -244 
L 2572 -244 
z
" transform="scale(0.015625)"/>
      <path id="PalatinoLinotype-Bold-73" d="M 2622 981 
Q 2622 478 2242 170 
Q 1863 -138 1250 -138 
Q 816 -138 319 50 
L 284 97 
Q 313 384 319 544 
L 334 938 
L 366 972 
L 550 972 
L 588 938 
Q 600 588 616 525 
Q 881 184 1313 184 
Q 1588 184 1753 318 
Q 1919 453 1919 678 
Q 1919 963 1669 1056 
Q 1563 1097 1247 1163 
Q 731 1272 556 1413 
Q 291 1625 291 2041 
Q 291 2494 619 2769 
Q 963 3056 1550 3056 
Q 2050 3056 2381 2888 
L 2409 2838 
Q 2375 2697 2356 2116 
L 2322 2084 
L 2144 2084 
L 2109 2116 
Q 2097 2341 2066 2481 
Q 1869 2731 1494 2731 
Q 1250 2731 1094 2612 
Q 938 2494 938 2300 
Q 938 2041 1203 1953 
Q 1322 1916 1666 1847 
Q 2191 1744 2359 1609 
Q 2622 1400 2622 981 
z
" transform="scale(0.015625)"/>
      <path id="PalatinoLinotype-Bold-54" d="M 4141 4391 
Q 4103 4159 4100 3913 
L 4094 3391 
L 4063 3359 
L 3866 3359 
L 3831 3388 
Q 3816 3788 3797 3856 
Q 3759 3981 3597 4003 
Q 3534 4013 3009 4013 
L 2591 4013 
Q 2584 3903 2584 3144 
L 2584 1369 
Q 2584 625 2625 400 
Q 2641 309 2731 284 
Q 2778 272 3097 253 
L 3128 222 
L 3128 13 
L 3097 -19 
Q 2788 0 2134 0 
Q 1466 0 1172 -19 
L 1144 9 
L 1144 222 
L 1175 253 
Q 1494 272 1541 284 
Q 1631 309 1647 400 
Q 1688 625 1688 1369 
L 1688 3144 
Q 1688 3916 1678 4013 
L 1231 4013 
Q 672 4013 578 3978 
Q 528 3959 509 3931 
Q 481 3881 463 3731 
Q 441 3566 434 3391 
L 403 3359 
L 206 3359 
L 172 3391 
L 166 3925 
Q 163 4150 128 4391 
L 156 4422 
Q 341 4391 1500 4391 
L 2766 4391 
Q 3834 4391 4109 4422 
L 4141 4391 
z
" transform="scale(0.015625)"/>
      <path id="PalatinoLinotype-Bold-68" d="M 3775 13 
L 3744 -22 
Q 3400 0 3163 0 
Q 2944 0 2525 -22 
L 2494 9 
Q 2550 706 2550 1084 
L 2550 1697 
Q 2550 2459 2000 2459 
Q 1706 2459 1544 2256 
Q 1413 2094 1413 1838 
L 1413 1469 
Q 1413 834 1434 428 
Q 1441 306 1503 278 
Q 1575 241 1875 231 
L 1909 200 
L 1909 9 
L 1878 -22 
Q 1581 0 1022 0 
Q 463 0 169 -22 
L 138 9 
L 138 200 
L 169 231 
Q 469 241 541 278 
Q 603 306 609 428 
Q 631 834 631 1850 
L 631 2897 
Q 631 3553 609 3959 
Q 603 4075 540 4111 
Q 478 4147 178 4156 
L 147 4191 
L 147 4363 
L 178 4397 
Q 781 4463 1388 4656 
L 1453 4619 
Q 1453 4534 1444 4309 
Q 1413 3563 1413 2656 
L 1413 2481 
L 1963 2944 
Q 2169 3028 2416 3028 
Q 2913 3028 3159 2728 
Q 3359 2484 3359 2013 
Q 3359 1959 3346 1631 
Q 3334 1303 3334 1034 
Q 3334 563 3350 433 
Q 3366 303 3422 268 
Q 3478 234 3747 228 
L 3775 197 
L 3775 13 
z
" transform="scale(0.015625)"/>
      <path id="PalatinoLinotype-Bold-67" d="M 3491 -216 
Q 3491 -900 2980 -1306 
Q 2469 -1713 1644 -1713 
Q 997 -1713 620 -1470 
Q 244 -1228 244 -819 
Q 244 -544 366 -403 
Q 378 -388 697 -197 
Q 850 -106 922 -69 
Q 491 6 491 347 
Q 491 528 616 716 
Q 625 728 784 841 
Q 859 894 1050 1031 
Q 375 1275 375 1934 
Q 375 2444 756 2755 
Q 1138 3066 1772 3066 
Q 2384 3066 2731 2794 
Q 2928 2784 2984 2788 
Q 3138 2794 3447 2803 
L 3484 2769 
L 3450 2447 
L 3416 2416 
L 2953 2416 
Q 2994 2266 2994 2109 
Q 2994 1366 2272 1094 
Q 1947 972 1631 972 
Q 1525 972 1356 988 
Q 1159 881 1159 709 
Q 1159 550 1388 528 
Q 1519 516 1825 516 
Q 1922 516 2162 525 
Q 2403 534 2519 534 
Q 3225 534 3397 222 
Q 3491 53 3491 -216 
z
M 2206 1969 
Q 2206 2756 1678 2756 
Q 1159 2756 1159 2075 
Q 1159 1269 1700 1269 
Q 2206 1269 2206 1969 
z
M 2775 -572 
Q 2775 -231 2538 -144 
Q 2438 -106 2138 -103 
L 1544 -97 
Q 1444 -97 1269 -103 
Q 841 -369 841 -713 
Q 841 -1028 1094 -1208 
Q 1347 -1388 1772 -1388 
Q 2228 -1388 2501 -1167 
Q 2775 -947 2775 -572 
z
" transform="scale(0.015625)"/>
      <path id="PalatinoLinotype-Bold-70" d="M 3613 1813 
Q 3613 1428 3475 1078 
Q 3375 822 3213 644 
Q 3141 566 2944 419 
Q 2738 253 2428 19 
Q 2244 -103 1959 -103 
Q 1688 -103 1416 -3 
L 1416 -1175 
Q 1416 -1319 1450 -1366 
Q 1469 -1391 1534 -1406 
Q 1584 -1419 1934 -1444 
L 1969 -1475 
L 1969 -1669 
L 1938 -1700 
Q 1516 -1675 978 -1675 
Q 584 -1675 191 -1700 
L 159 -1669 
L 159 -1481 
L 191 -1447 
Q 506 -1438 553 -1397 
Q 584 -1369 591 -1338 
Q 603 -1278 616 -1031 
Q 625 -844 628 -553 
L 634 -69 
L 634 1747 
Q 634 1778 616 2209 
Q 606 2413 582 2470 
Q 559 2528 453 2544 
Q 416 2550 178 2559 
L 147 2591 
L 147 2766 
L 178 2800 
Q 775 2853 1388 3059 
L 1456 3019 
Q 1456 2884 1428 2478 
Q 1638 2653 1956 2913 
Q 2109 3028 2428 3028 
Q 3203 3028 3484 2434 
Q 3613 2163 3613 1813 
z
M 2809 1428 
Q 2809 2109 2450 2347 
Q 2259 2472 2053 2472 
Q 1669 2472 1416 2156 
L 1416 606 
Q 1700 306 2041 306 
Q 2550 306 2722 834 
Q 2809 1100 2809 1428 
z
" transform="scale(0.015625)"/>
      <path id="PalatinoLinotype-Bold-76" d="M 3494 2728 
L 3463 2694 
Q 3272 2681 3213 2647 
Q 3169 2622 3106 2509 
Q 3044 2397 2872 2003 
L 2275 619 
Q 2244 544 2006 -53 
L 1459 -53 
Q 1284 441 1078 956 
Q 750 1778 519 2369 
Q 416 2631 297 2675 
Q 228 2700 113 2703 
L 78 2738 
L 78 2919 
L 113 2950 
Q 400 2941 947 2941 
Q 1428 2941 1700 2950 
L 1734 2919 
L 1734 2734 
L 1700 2700 
Q 1469 2694 1400 2672 
Q 1331 2650 1331 2588 
Q 1331 2500 1716 1488 
Q 1919 947 1981 809 
Q 2181 1278 2363 1728 
Q 2659 2463 2659 2588 
Q 2659 2653 2595 2673 
Q 2531 2694 2288 2703 
L 2253 2734 
L 2253 2919 
L 2288 2950 
Q 2528 2941 2856 2941 
Q 3209 2941 3463 2950 
L 3494 2919 
L 3494 2728 
z
" transform="scale(0.015625)"/>
     </defs>
     <use xlink:href="#PalatinoLinotype-Bold-43"/>
     <use xlink:href="#PalatinoLinotype-Bold-6f" x="72.216797"/>
     <use xlink:href="#PalatinoLinotype-Bold-6e" x="127.832031"/>
     <use xlink:href="#PalatinoLinotype-Bold-63" x="188.916016"/>
     <use xlink:href="#PalatinoLinotype-Bold-75" x="233.300781"/>
     <use xlink:href="#PalatinoLinotype-Bold-72" x="294.384766"/>
     <use xlink:href="#PalatinoLinotype-Bold-72" x="333.300781"/>
     <use xlink:href="#PalatinoLinotype-Bold-65" x="372.216797"/>
     <use xlink:href="#PalatinoLinotype-Bold-6e" x="422.216797"/>
     <use xlink:href="#PalatinoLinotype-Bold-74" x="483.300781"/>
     <use xlink:href="#PalatinoLinotype-Bold-20" x="516.601562"/>
     <use xlink:href="#PalatinoLinotype-Bold-55" x="541.601562"/>
     <use xlink:href="#PalatinoLinotype-Bold-73" x="619.384766"/>
     <use xlink:href="#PalatinoLinotype-Bold-65" x="663.769531"/>
     <use xlink:href="#PalatinoLinotype-Bold-72" x="713.769531"/>
     <use xlink:href="#PalatinoLinotype-Bold-73" x="752.685547"/>
     <use xlink:href="#PalatinoLinotype-Bold-20" x="797.070312"/>
     <use xlink:href="#PalatinoLinotype-Bold-54" x="822.070312"/>
     <use xlink:href="#PalatinoLinotype-Bold-68" x="888.769531"/>
     <use xlink:href="#PalatinoLinotype-Bold-72" x="949.853516"/>
     <use xlink:href="#PalatinoLinotype-Bold-6f" x="988.769531"/>
     <use xlink:href="#PalatinoLinotype-Bold-75" x="1044.384766"/>
     <use xlink:href="#PalatinoLinotype-Bold-67" x="1105.46875"/>
     <use xlink:href="#PalatinoLinotype-Bold-68" x="1161.035156"/>
     <use xlink:href="#PalatinoLinotype-Bold-70" x="1222.119141"/>
     <use xlink:href="#PalatinoLinotype-Bold-75" x="1283.203125"/>
     <use xlink:href="#PalatinoLinotype-Bold-74" x="1344.287109"/>
     <use xlink:href="#PalatinoLinotype-Bold-20" x="1377.587891"/>
     <use xlink:href="#PalatinoLinotype-Bold-76" x="1402.587891"/>
     <use xlink:href="#PalatinoLinotype-Bold-73" x="1458.154297"/>
     <use xlink:href="#PalatinoLinotype-Bold-20" x="1502.539062"/>
     <use xlink:href="#PalatinoLinotype-Bold-55" x="1527.539062"/>
     <use xlink:href="#PalatinoLinotype-Bold-73" x="1605.322266"/>
     <use xlink:href="#PalatinoLinotype-Bold-65" x="1649.707031"/>
     <use xlink:href="#PalatinoLinotype-Bold-72" x="1699.707031"/>
     <use xlink:href="#PalatinoLinotype-Bold-20" x="1738.623047"/>
     <use xlink:href="#PalatinoLinotype-Bold-43" x="1763.623047"/>
     <use xlink:href="#PalatinoLinotype-Bold-6f" x="1835.839844"/>
     <use xlink:href="#PalatinoLinotype-Bold-75" x="1891.455078"/>
     <use xlink:href="#PalatinoLinotype-Bold-6e" x="1952.539062"/>
     <use xlink:href="#PalatinoLinotype-Bold-74" x="2013.623047"/>
    </g>
   </g>
  </g>
  <g id="axes_2">
   <g id="patch_7">
    <path d="M 341.3675 178.36 
L 565.2 178.36 
L 565.2 24.4725 
L 341.3675 24.4725 
z
" style="fill: #ffffff"/>
   </g>
   <g id="matplotlib.axis_3">
    <g id="xtick_6">
     <g id="line2d_11">
      <g>
       <use xlink:href="#m1d5590d28e" x="351.541705" y="178.36" style="stroke: #000000; stroke-width: 0.8"/>
      </g>
     </g>
     <g id="text_13">
      <!-- 5 -->
      <g transform="translate(349.041705 192.600625) scale(0.1 -0.1)">
       <use xlink:href="#Palatino-35"/>
      </g>
     </g>
    </g>
    <g id="xtick_7">
     <g id="line2d_12">
      <g>
       <use xlink:href="#m1d5590d28e" x="402.412727" y="178.36" style="stroke: #000000; stroke-width: 0.8"/>
      </g>
     </g>
     <g id="text_14">
      <!-- 10 -->
      <g transform="translate(397.412727 192.600625) scale(0.1 -0.1)">
       <use xlink:href="#Palatino-31"/>
       <use xlink:href="#Palatino-30" x="49.999985"/>
      </g>
     </g>
    </g>
    <g id="xtick_8">
     <g id="line2d_13">
      <g>
       <use xlink:href="#m1d5590d28e" x="453.28375" y="178.36" style="stroke: #000000; stroke-width: 0.8"/>
      </g>
     </g>
     <g id="text_15">
      <!-- 15 -->
      <g transform="translate(448.28375 192.600625) scale(0.1 -0.1)">
       <use xlink:href="#Palatino-31"/>
       <use xlink:href="#Palatino-35" x="49.999985"/>
      </g>
     </g>
    </g>
    <g id="xtick_9">
     <g id="line2d_14">
      <g>
       <use xlink:href="#m1d5590d28e" x="504.154773" y="178.36" style="stroke: #000000; stroke-width: 0.8"/>
      </g>
     </g>
     <g id="text_16">
      <!-- 20 -->
      <g transform="translate(499.154773 192.600625) scale(0.1 -0.1)">
       <use xlink:href="#Palatino-32"/>
       <use xlink:href="#Palatino-30" x="49.999985"/>
      </g>
     </g>
    </g>
    <g id="xtick_10">
     <g id="line2d_15">
      <g>
       <use xlink:href="#m1d5590d28e" x="555.025795" y="178.36" style="stroke: #000000; stroke-width: 0.8"/>
      </g>
     </g>
     <g id="text_17">
      <!-- 25 -->
      <g transform="translate(550.025795 192.600625) scale(0.1 -0.1)">
       <use xlink:href="#Palatino-32"/>
       <use xlink:href="#Palatino-35" x="49.999985"/>
      </g>
     </g>
    </g>
    <g id="text_18">
     <!-- User Count -->
     <g transform="translate(425.277578 207.364375) scale(0.11 -0.11)">
      <use xlink:href="#PalatinoLinotype-Roman-55"/>
      <use xlink:href="#PalatinoLinotype-Roman-73" x="77.783203"/>
      <use xlink:href="#PalatinoLinotype-Roman-65" x="120.166016"/>
      <use xlink:href="#PalatinoLinotype-Roman-72" x="168.066406"/>
      <use xlink:href="#PalatinoLinotype-Roman-20" x="207.568359"/>
      <use xlink:href="#PalatinoLinotype-Roman-43" x="232.568359"/>
      <use xlink:href="#PalatinoLinotype-Roman-6f" x="303.466797"/>
      <use xlink:href="#PalatinoLinotype-Roman-75" x="358.056641"/>
      <use xlink:href="#PalatinoLinotype-Roman-6e" x="418.359375"/>
      <use xlink:href="#PalatinoLinotype-Roman-74" x="476.5625"/>
     </g>
    </g>
   </g>
   <g id="matplotlib.axis_4">
    <g id="ytick_5">
     <g id="line2d_16">
      <g>
       <use xlink:href="#m5c162f45b4" x="341.3675" y="166.965814" style="stroke: #000000; stroke-width: 0.8"/>
      </g>
     </g>
     <g id="text_19">
      <!-- 10.50 -->
      <g transform="translate(311.8675 170.586127) scale(0.1 -0.1)">
       <use xlink:href="#Palatino-31"/>
       <use xlink:href="#Palatino-30" x="49.999985"/>
       <use xlink:href="#Palatino-2e" x="99.999969"/>
       <use xlink:href="#Palatino-35" x="124.999954"/>
       <use xlink:href="#Palatino-30" x="174.999939"/>
      </g>
     </g>
    </g>
    <g id="ytick_6">
     <g id="line2d_17">
      <g>
       <use xlink:href="#m5c162f45b4" x="341.3675" y="144.969316" style="stroke: #000000; stroke-width: 0.8"/>
      </g>
     </g>
     <g id="text_20">
      <!-- 10.75 -->
      <g transform="translate(311.8675 148.589629) scale(0.1 -0.1)">
       <defs>
        <path id="Palatino-37" d="M 358 64 
L 1920 2573 
Q 1965 2637 2006 2707 
Q 2048 2778 2093 2854 
Q 2138 2925 2182 3001 
Q 2227 3078 2272 3162 
Q 2310 3238 2352 3321 
Q 2394 3405 2438 3488 
Q 2483 3578 2528 3664 
Q 2573 3750 2618 3846 
L 909 3859 
Q 794 3846 723 3827 
Q 653 3808 621 3770 
Q 589 3731 563 3644 
Q 538 3558 518 3424 
Q 518 3418 518 3414 
Q 518 3411 518 3411 
Q 518 3405 518 3401 
Q 518 3398 518 3398 
L 474 3053 
L 282 3053 
Q 282 3072 282 3097 
Q 282 3123 282 3149 
Q 282 3162 282 3174 
Q 282 3187 288 3206 
Q 288 3219 288 3232 
Q 288 3245 288 3258 
Q 288 3290 288 3315 
Q 288 3341 294 3373 
Q 294 3398 294 3427 
Q 294 3456 294 3482 
Q 294 3514 294 3539 
Q 294 3565 301 3597 
Q 301 3622 301 3651 
Q 301 3680 301 3706 
Q 301 3731 301 3756 
Q 301 3782 301 3814 
Q 294 3840 294 3869 
Q 294 3898 294 3923 
Q 294 3949 294 3974 
Q 294 4000 294 4032 
Q 288 4058 288 4086 
Q 288 4115 288 4141 
Q 288 4154 288 4166 
Q 288 4179 288 4198 
Q 282 4211 282 4224 
Q 282 4237 282 4250 
Q 282 4282 282 4310 
Q 282 4339 282 4365 
L 346 4410 
Q 518 4397 694 4387 
Q 870 4378 1050 4371 
Q 1229 4365 1405 4365 
Q 1581 4365 1760 4365 
Q 1939 4365 2115 4365 
Q 2291 4365 2470 4371 
Q 2650 4378 2826 4384 
Q 3002 4390 3181 4397 
L 3181 4218 
L 2010 2112 
Q 1971 2035 1932 1968 
Q 1894 1901 1862 1830 
Q 1824 1766 1789 1699 
Q 1754 1632 1722 1562 
Q 1619 1357 1520 1155 
Q 1421 954 1331 749 
Q 1242 550 1158 355 
Q 1075 160 1005 -19 
Q 998 -19 992 -19 
Q 986 -19 979 -19 
Q 973 -13 966 -13 
Q 960 -13 954 -13 
Q 947 -13 940 -13 
Q 934 -13 934 -13 
Q 928 -13 921 -13 
Q 915 -13 909 -13 
Q 902 -13 899 -13 
Q 896 -13 896 -13 
Q 890 -6 886 -6 
Q 883 -6 883 -6 
Q 877 -6 870 -6 
Q 864 -6 858 -6 
Q 851 -6 841 -6 
Q 832 -6 819 -6 
Q 813 0 803 0 
Q 794 0 781 0 
Q 774 0 764 0 
Q 755 0 749 0 
Q 736 0 729 0 
Q 723 0 710 0 
Q 691 0 672 0 
Q 653 0 634 0 
Q 627 0 617 0 
Q 608 0 602 -6 
Q 589 -6 582 -6 
Q 576 -6 563 -6 
Q 557 -6 550 -6 
Q 544 -6 538 -6 
Q 531 -6 528 -6 
Q 525 -6 525 -13 
Q 518 -13 515 -13 
Q 512 -13 512 -13 
Q 499 -13 486 -13 
Q 474 -13 461 -13 
Q 454 -13 448 -13 
Q 442 -13 442 -19 
Q 435 -19 428 -19 
Q 422 -19 416 -19 
L 358 64 
L 358 64 
L 358 64 
z
" transform="scale(0.015625)"/>
       </defs>
       <use xlink:href="#Palatino-31"/>
       <use xlink:href="#Palatino-30" x="49.999985"/>
       <use xlink:href="#Palatino-2e" x="99.999969"/>
       <use xlink:href="#Palatino-37" x="124.999954"/>
       <use xlink:href="#Palatino-35" x="174.999939"/>
      </g>
     </g>
    </g>
    <g id="ytick_7">
     <g id="line2d_18">
      <g>
       <use xlink:href="#m5c162f45b4" x="341.3675" y="122.972818" style="stroke: #000000; stroke-width: 0.8"/>
      </g>
     </g>
     <g id="text_21">
      <!-- 11.00 -->
      <g transform="translate(312.4175 126.593131) scale(0.1 -0.1)">
       <use xlink:href="#Palatino-31"/>
       <use xlink:href="#Palatino-31" x="44.499985"/>
       <use xlink:href="#Palatino-2e" x="94.499969"/>
       <use xlink:href="#Palatino-30" x="119.499954"/>
       <use xlink:href="#Palatino-30" x="169.499939"/>
      </g>
     </g>
    </g>
    <g id="ytick_8">
     <g id="line2d_19">
      <g>
       <use xlink:href="#m5c162f45b4" x="341.3675" y="100.97632" style="stroke: #000000; stroke-width: 0.8"/>
      </g>
     </g>
     <g id="text_22">
      <!-- 11.25 -->
      <g transform="translate(312.4175 104.596633) scale(0.1 -0.1)">
       <use xlink:href="#Palatino-31"/>
       <use xlink:href="#Palatino-31" x="44.499985"/>
       <use xlink:href="#Palatino-2e" x="94.499969"/>
       <use xlink:href="#Palatino-32" x="119.499954"/>
       <use xlink:href="#Palatino-35" x="169.499939"/>
      </g>
     </g>
    </g>
    <g id="ytick_9">
     <g id="line2d_20">
      <g>
       <use xlink:href="#m5c162f45b4" x="341.3675" y="78.979822" style="stroke: #000000; stroke-width: 0.8"/>
      </g>
     </g>
     <g id="text_23">
      <!-- 11.50 -->
      <g transform="translate(312.4175 82.600135) scale(0.1 -0.1)">
       <use xlink:href="#Palatino-31"/>
       <use xlink:href="#Palatino-31" x="44.499985"/>
       <use xlink:href="#Palatino-2e" x="94.499969"/>
       <use xlink:href="#Palatino-35" x="119.499954"/>
       <use xlink:href="#Palatino-30" x="169.499939"/>
      </g>
     </g>
    </g>
    <g id="ytick_10">
     <g id="line2d_21">
      <g>
       <use xlink:href="#m5c162f45b4" x="341.3675" y="56.983324" style="stroke: #000000; stroke-width: 0.8"/>
      </g>
     </g>
     <g id="text_24">
      <!-- 11.75 -->
      <g transform="translate(312.4175 60.603637) scale(0.1 -0.1)">
       <use xlink:href="#Palatino-31"/>
       <use xlink:href="#Palatino-31" x="44.499985"/>
       <use xlink:href="#Palatino-2e" x="94.499969"/>
       <use xlink:href="#Palatino-37" x="119.499954"/>
       <use xlink:href="#Palatino-35" x="169.499939"/>
      </g>
     </g>
    </g>
    <g id="ytick_11">
     <g id="line2d_22">
      <g>
       <use xlink:href="#m5c162f45b4" x="341.3675" y="34.986826" style="stroke: #000000; stroke-width: 0.8"/>
      </g>
     </g>
     <g id="text_25">
      <!-- 12.00 -->
      <g transform="translate(311.8675 38.607139) scale(0.1 -0.1)">
       <use xlink:href="#Palatino-31"/>
       <use xlink:href="#Palatino-32" x="49.999985"/>
       <use xlink:href="#Palatino-2e" x="99.999969"/>
       <use xlink:href="#Palatino-30" x="124.999954"/>
       <use xlink:href="#Palatino-30" x="174.999939"/>
      </g>
     </g>
    </g>
    <g id="text_26">
     <!-- Concurrent Users Latency -->
     <g transform="translate(304.77375 164.991094) rotate(-90) scale(0.11 -0.11)">
      <defs>
       <path id="PalatinoLinotype-Roman-4c" d="M 116 4394 
L 141 4416 
Q 916 4391 1034 4391 
Q 1141 4391 1931 4416 
L 1956 4394 
L 1956 4238 
L 1931 4216 
Q 1716 4209 1598 4196 
Q 1481 4184 1428 4150 
Q 1375 4116 1358 3989 
Q 1341 3863 1341 3638 
L 1334 2919 
L 1334 1538 
Q 1334 1019 1341 813 
L 1356 272 
L 1994 272 
Q 2756 272 2945 290 
Q 3134 309 3309 381 
Q 3344 459 3408 740 
Q 3472 1022 3475 1066 
L 3503 1091 
L 3656 1091 
L 3678 1066 
Q 3653 941 3626 581 
Q 3600 222 3600 0 
L 3575 -25 
Q 2981 -6 2016 -6 
L 1103 0 
Q 791 0 466 -25 
L 441 0 
L 441 103 
L 466 134 
Q 659 234 678 256 
Q 697 278 717 659 
Q 738 1041 738 1578 
L 738 2919 
L 731 3528 
Q 728 3884 714 3987 
Q 700 4091 670 4125 
Q 641 4159 556 4181 
Q 472 4203 141 4216 
L 116 4238 
L 116 4394 
z
" transform="scale(0.015625)"/>
       <path id="PalatinoLinotype-Roman-61" d="M 663 2119 
L 541 2150 
L 516 2181 
L 516 2569 
Q 1072 2981 1597 2981 
Q 1956 2981 2193 2847 
Q 2431 2713 2537 2511 
Q 2644 2309 2644 2041 
L 2628 1413 
L 2628 481 
Q 2628 291 2654 250 
Q 2681 209 2715 195 
Q 2750 181 2844 172 
L 3022 156 
L 3047 128 
L 3047 3 
L 3022 -22 
Q 2794 -3 2597 -3 
Q 2409 -3 2147 -22 
L 2100 22 
L 2113 525 
L 1431 -6 
Q 1259 -78 1056 -78 
Q 806 -78 626 12 
Q 447 103 351 265 
Q 256 428 256 659 
Q 256 1119 543 1376 
Q 831 1634 2113 1816 
Q 2113 2278 1906 2467 
Q 1700 2656 1353 2656 
Q 1172 2656 1023 2603 
Q 875 2550 853 2517 
Q 831 2484 684 2134 
L 663 2119 
z
M 2113 1625 
Q 1238 1478 1022 1309 
Q 806 1141 806 788 
Q 806 300 1291 300 
Q 1706 300 2113 781 
L 2113 1625 
z
M 1581 3175 
L 1581 3175 
z
M 1516 -188 
L 1516 -188 
z
" transform="scale(0.015625)"/>
       <path id="PalatinoLinotype-Roman-79" d="M 141 -1697 
Q 247 -1434 300 -1216 
L 375 -1216 
Q 528 -1381 706 -1381 
Q 928 -1381 1092 -1161 
Q 1256 -941 1556 -188 
Q 1438 147 1316 444 
L 819 1675 
Q 741 1866 587 2220 
Q 434 2575 404 2611 
Q 375 2647 328 2678 
Q 281 2709 75 2738 
L 50 2763 
L 50 2888 
L 78 2913 
Q 438 2891 816 2891 
Q 1259 2891 1500 2913 
L 1525 2888 
L 1525 2763 
L 1503 2738 
Q 1469 2734 1311 2723 
Q 1153 2713 1114 2673 
Q 1075 2634 1075 2584 
Q 1075 2531 1172 2239 
Q 1269 1947 1359 1722 
L 1556 1234 
Q 1750 753 1856 525 
L 2022 891 
Q 2109 1091 2272 1497 
L 2531 2159 
Q 2631 2416 2645 2478 
Q 2659 2541 2659 2569 
Q 2659 2638 2609 2663 
Q 2559 2688 2388 2706 
L 2256 2725 
L 2234 2750 
L 2234 2888 
L 2259 2913 
Q 2522 2891 2881 2891 
Q 3209 2891 3406 2913 
L 3431 2888 
L 3431 2750 
L 3406 2725 
Q 3291 2722 3222 2694 
Q 3153 2666 3090 2594 
Q 3028 2522 2865 2189 
Q 2703 1856 2541 1500 
L 2234 828 
L 1513 -859 
Q 1419 -1078 1280 -1328 
Q 1141 -1578 939 -1689 
Q 738 -1800 513 -1800 
Q 316 -1800 141 -1697 
z
M 1813 3175 
L 1813 3175 
z
M 2547 -188 
L 2547 -188 
z
" transform="scale(0.015625)"/>
      </defs>
      <use xlink:href="#PalatinoLinotype-Roman-43"/>
      <use xlink:href="#PalatinoLinotype-Roman-6f" x="70.898438"/>
      <use xlink:href="#PalatinoLinotype-Roman-6e" x="125.488281"/>
      <use xlink:href="#PalatinoLinotype-Roman-63" x="183.691406"/>
      <use xlink:href="#PalatinoLinotype-Roman-75" x="228.076172"/>
      <use xlink:href="#PalatinoLinotype-Roman-72" x="288.378906"/>
      <use xlink:href="#PalatinoLinotype-Roman-72" x="327.880859"/>
      <use xlink:href="#PalatinoLinotype-Roman-65" x="367.382812"/>
      <use xlink:href="#PalatinoLinotype-Roman-6e" x="415.283203"/>
      <use xlink:href="#PalatinoLinotype-Roman-74" x="473.486328"/>
      <use xlink:href="#PalatinoLinotype-Roman-20" x="506.103516"/>
      <use xlink:href="#PalatinoLinotype-Roman-55" x="531.103516"/>
      <use xlink:href="#PalatinoLinotype-Roman-73" x="608.886719"/>
      <use xlink:href="#PalatinoLinotype-Roman-65" x="651.269531"/>
      <use xlink:href="#PalatinoLinotype-Roman-72" x="699.169922"/>
      <use xlink:href="#PalatinoLinotype-Roman-73" x="738.671875"/>
      <use xlink:href="#PalatinoLinotype-Roman-20" x="781.054688"/>
      <use xlink:href="#PalatinoLinotype-Roman-4c" x="806.054688"/>
      <use xlink:href="#PalatinoLinotype-Roman-61" x="867.138672"/>
      <use xlink:href="#PalatinoLinotype-Roman-74" x="917.138672"/>
      <use xlink:href="#PalatinoLinotype-Roman-65" x="949.755859"/>
      <use xlink:href="#PalatinoLinotype-Roman-6e" x="997.65625"/>
      <use xlink:href="#PalatinoLinotype-Roman-63" x="1055.859375"/>
      <use xlink:href="#PalatinoLinotype-Roman-79" x="1100.244141"/>
     </g>
    </g>
   </g>
   <g id="line2d_23">
    <path d="M 351.541705 171.365114 
L 402.412727 164.326234 
L 453.28375 57.863184 
L 504.154773 86.898561 
L 555.025795 31.467386 
" clip-path="url(#pf59df2b7cf)" style="fill: none; stroke: #1f77b4; stroke-width: 1.5; stroke-linecap: square"/>
   </g>
   <g id="patch_8">
    <path d="M 341.3675 178.36 
L 341.3675 24.4725 
" style="fill: none; stroke: #000000; stroke-width: 0.8; stroke-linejoin: miter; stroke-linecap: square"/>
   </g>
   <g id="patch_9">
    <path d="M 565.2 178.36 
L 565.2 24.4725 
" style="fill: none; stroke: #000000; stroke-width: 0.8; stroke-linejoin: miter; stroke-linecap: square"/>
   </g>
   <g id="patch_10">
    <path d="M 341.3675 178.36 
L 565.2 178.36 
" style="fill: none; stroke: #000000; stroke-width: 0.8; stroke-linejoin: miter; stroke-linecap: square"/>
   </g>
   <g id="patch_11">
    <path d="M 341.3675 24.4725 
L 565.2 24.4725 
" style="fill: none; stroke: #000000; stroke-width: 0.8; stroke-linejoin: miter; stroke-linecap: square"/>
   </g>
   <g id="text_27">
    <!-- Concurrent Users Latency vs User Count -->
    <g transform="translate(351.733125 18.4725) scale(0.11 -0.11)">
     <defs>
      <path id="PalatinoLinotype-Bold-4c" d="M 3641 1044 
Q 3572 588 3572 13 
L 3541 -19 
L 1269 0 
Q 700 0 466 -19 
L 434 13 
L 434 100 
L 450 138 
Q 681 284 700 322 
Q 728 378 734 738 
L 744 1438 
L 744 3022 
Q 744 3766 703 3991 
Q 688 4081 597 4106 
Q 550 4119 231 4138 
L 200 4169 
L 200 4381 
L 231 4409 
Q 553 4391 1175 4391 
Q 1819 4391 2153 4409 
L 2184 4381 
L 2184 4166 
L 2153 4138 
Q 1834 4119 1788 4106 
Q 1697 4081 1681 3991 
Q 1641 3766 1641 3022 
L 1641 1153 
Q 1641 744 1656 359 
L 2081 359 
Q 2994 359 3200 431 
Q 3234 444 3250 466 
Q 3281 509 3309 653 
L 3384 1041 
L 3416 1075 
L 3606 1075 
L 3641 1044 
z
" transform="scale(0.015625)"/>
      <path id="PalatinoLinotype-Bold-61" d="M 3053 19 
L 3019 -16 
Q 2756 0 2416 0 
Q 2150 0 1906 -16 
L 1878 19 
L 1906 438 
L 1300 -25 
Q 1228 -78 1094 -91 
Q 1041 -97 969 -97 
Q 622 -97 436 112 
Q 250 322 250 691 
Q 250 1178 559 1381 
Q 894 1603 1906 1781 
Q 1906 2278 1644 2447 
Q 1484 2550 1263 2550 
Q 1019 2550 878 2450 
L 759 2159 
L 719 2138 
L 559 2175 
L 538 2219 
L 553 2588 
Q 1069 2969 1328 3019 
Q 1438 3041 1613 3041 
Q 2228 3041 2491 2719 
Q 2681 2484 2681 2000 
Q 2681 1881 2672 1619 
Q 2656 1181 2656 1034 
Q 2656 563 2672 433 
Q 2688 303 2745 268 
Q 2803 234 3022 228 
L 3053 194 
L 3053 19 
z
M 1906 747 
L 1906 1516 
Q 1391 1403 1211 1273 
Q 1031 1144 1031 878 
Q 1031 453 1403 453 
Q 1719 453 1906 747 
z
M 1656 3181 
L 1656 3181 
z
M 1656 -244 
L 1656 -244 
z
" transform="scale(0.015625)"/>
      <path id="PalatinoLinotype-Bold-79" d="M 3491 2728 
L 3463 2700 
Q 3256 2700 3181 2581 
Q 3141 2513 2959 2122 
Q 2550 1231 2281 566 
L 1778 -678 
Q 1544 -1256 1275 -1500 
Q 1022 -1728 656 -1728 
Q 425 -1728 209 -1619 
Q 263 -1397 319 -997 
L 400 -981 
Q 563 -1213 841 -1213 
Q 1169 -1213 1444 -572 
L 1572 -272 
L 559 2359 
Q 472 2588 398 2642 
Q 325 2697 109 2700 
L 78 2731 
L 78 2919 
L 113 2950 
Q 313 2941 878 2941 
Q 1403 2941 1731 2950 
L 1763 2919 
L 1763 2731 
L 1731 2700 
Q 1375 2700 1375 2572 
Q 1375 2516 1406 2434 
Q 1456 2291 1559 2006 
L 2016 800 
L 2291 1459 
Q 2694 2425 2694 2588 
Q 2694 2700 2331 2700 
L 2300 2731 
L 2300 2919 
L 2334 2950 
Q 2516 2941 2947 2941 
Q 3191 2941 3456 2950 
L 3491 2919 
L 3491 2728 
z
M 2534 -244 
L 2534 -244 
z
M 1813 3181 
L 1813 3181 
z
" transform="scale(0.015625)"/>
     </defs>
     <use xlink:href="#PalatinoLinotype-Bold-43"/>
     <use xlink:href="#PalatinoLinotype-Bold-6f" x="72.216797"/>
     <use xlink:href="#PalatinoLinotype-Bold-6e" x="127.832031"/>
     <use xlink:href="#PalatinoLinotype-Bold-63" x="188.916016"/>
     <use xlink:href="#PalatinoLinotype-Bold-75" x="233.300781"/>
     <use xlink:href="#PalatinoLinotype-Bold-72" x="294.384766"/>
     <use xlink:href="#PalatinoLinotype-Bold-72" x="333.300781"/>
     <use xlink:href="#PalatinoLinotype-Bold-65" x="372.216797"/>
     <use xlink:href="#PalatinoLinotype-Bold-6e" x="422.216797"/>
     <use xlink:href="#PalatinoLinotype-Bold-74" x="483.300781"/>
     <use xlink:href="#PalatinoLinotype-Bold-20" x="516.601562"/>
     <use xlink:href="#PalatinoLinotype-Bold-55" x="541.601562"/>
     <use xlink:href="#PalatinoLinotype-Bold-73" x="619.384766"/>
     <use xlink:href="#PalatinoLinotype-Bold-65" x="663.769531"/>
     <use xlink:href="#PalatinoLinotype-Bold-72" x="713.769531"/>
     <use xlink:href="#PalatinoLinotype-Bold-73" x="752.685547"/>
     <use xlink:href="#PalatinoLinotype-Bold-20" x="797.070312"/>
     <use xlink:href="#PalatinoLinotype-Bold-4c" x="822.070312"/>
     <use xlink:href="#PalatinoLinotype-Bold-61" x="882.666016"/>
     <use xlink:href="#PalatinoLinotype-Bold-74" x="932.666016"/>
     <use xlink:href="#PalatinoLinotype-Bold-65" x="965.966797"/>
     <use xlink:href="#PalatinoLinotype-Bold-6e" x="1015.966797"/>
     <use xlink:href="#PalatinoLinotype-Bold-63" x="1077.050781"/>
     <use xlink:href="#PalatinoLinotype-Bold-79" x="1121.435547"/>
     <use xlink:href="#PalatinoLinotype-Bold-20" x="1177.050781"/>
     <use xlink:href="#PalatinoLinotype-Bold-76" x="1202.050781"/>
     <use xlink:href="#PalatinoLinotype-Bold-73" x="1257.617188"/>
     <use xlink:href="#PalatinoLinotype-Bold-20" x="1302.001953"/>
     <use xlink:href="#PalatinoLinotype-Bold-55" x="1327.001953"/>
     <use xlink:href="#PalatinoLinotype-Bold-73" x="1404.785156"/>
     <use xlink:href="#PalatinoLinotype-Bold-65" x="1449.169922"/>
     <use xlink:href="#PalatinoLinotype-Bold-72" x="1499.169922"/>
     <use xlink:href="#PalatinoLinotype-Bold-20" x="1538.085938"/>
     <use xlink:href="#PalatinoLinotype-Bold-43" x="1563.085938"/>
     <use xlink:href="#PalatinoLinotype-Bold-6f" x="1635.302734"/>
     <use xlink:href="#PalatinoLinotype-Bold-75" x="1690.917969"/>
     <use xlink:href="#PalatinoLinotype-Bold-6e" x="1752.001953"/>
     <use xlink:href="#PalatinoLinotype-Bold-74" x="1813.085938"/>
    </g>
   </g>
  </g>
  <g id="axes_3">
   <g id="patch_12">
    <path d="M 62.4575 388.96 
L 286.29 388.96 
L 286.29 235.0725 
L 62.4575 235.0725 
z
" style="fill: #ffffff"/>
   </g>
   <g id="matplotlib.axis_5">
    <g id="xtick_11">
     <g id="line2d_24">
      <g>
       <use xlink:href="#m1d5590d28e" x="72.631705" y="388.96" style="stroke: #000000; stroke-width: 0.8"/>
      </g>
     </g>
     <g id="text_28">
      <!-- 5 -->
      <g transform="translate(70.131705 403.200625) scale(0.1 -0.1)">
       <use xlink:href="#Palatino-35"/>
      </g>
     </g>
    </g>
    <g id="xtick_12">
     <g id="line2d_25">
      <g>
       <use xlink:href="#m1d5590d28e" x="123.502727" y="388.96" style="stroke: #000000; stroke-width: 0.8"/>
      </g>
     </g>
     <g id="text_29">
      <!-- 10 -->
      <g transform="translate(118.502727 403.200625) scale(0.1 -0.1)">
       <use xlink:href="#Palatino-31"/>
       <use xlink:href="#Palatino-30" x="49.999985"/>
      </g>
     </g>
    </g>
    <g id="xtick_13">
     <g id="line2d_26">
      <g>
       <use xlink:href="#m1d5590d28e" x="174.37375" y="388.96" style="stroke: #000000; stroke-width: 0.8"/>
      </g>
     </g>
     <g id="text_30">
      <!-- 15 -->
      <g transform="translate(169.37375 403.200625) scale(0.1 -0.1)">
       <use xlink:href="#Palatino-31"/>
       <use xlink:href="#Palatino-35" x="49.999985"/>
      </g>
     </g>
    </g>
    <g id="xtick_14">
     <g id="line2d_27">
      <g>
       <use xlink:href="#m1d5590d28e" x="225.244773" y="388.96" style="stroke: #000000; stroke-width: 0.8"/>
      </g>
     </g>
     <g id="text_31">
      <!-- 20 -->
      <g transform="translate(220.244773 403.200625) scale(0.1 -0.1)">
       <use xlink:href="#Palatino-32"/>
       <use xlink:href="#Palatino-30" x="49.999985"/>
      </g>
     </g>
    </g>
    <g id="xtick_15">
     <g id="line2d_28">
      <g>
       <use xlink:href="#m1d5590d28e" x="276.115795" y="388.96" style="stroke: #000000; stroke-width: 0.8"/>
      </g>
     </g>
     <g id="text_32">
      <!-- 25 -->
      <g transform="translate(271.115795 403.200625) scale(0.1 -0.1)">
       <use xlink:href="#Palatino-32"/>
       <use xlink:href="#Palatino-35" x="49.999985"/>
      </g>
     </g>
    </g>
    <g id="text_33">
     <!-- User Count -->
     <g transform="translate(146.367578 417.964375) scale(0.11 -0.11)">
      <use xlink:href="#PalatinoLinotype-Roman-55"/>
      <use xlink:href="#PalatinoLinotype-Roman-73" x="77.783203"/>
      <use xlink:href="#PalatinoLinotype-Roman-65" x="120.166016"/>
      <use xlink:href="#PalatinoLinotype-Roman-72" x="168.066406"/>
      <use xlink:href="#PalatinoLinotype-Roman-20" x="207.568359"/>
      <use xlink:href="#PalatinoLinotype-Roman-43" x="232.568359"/>
      <use xlink:href="#PalatinoLinotype-Roman-6f" x="303.466797"/>
      <use xlink:href="#PalatinoLinotype-Roman-75" x="358.056641"/>
      <use xlink:href="#PalatinoLinotype-Roman-6e" x="418.359375"/>
      <use xlink:href="#PalatinoLinotype-Roman-74" x="476.5625"/>
     </g>
    </g>
   </g>
   <g id="matplotlib.axis_6">
    <g id="ytick_12">
     <g id="line2d_29">
      <g>
       <use xlink:href="#m5c162f45b4" x="62.4575" y="365.400331" style="stroke: #000000; stroke-width: 0.8"/>
      </g>
     </g>
     <g id="text_34">
      <!-- 155000 -->
      <g transform="translate(25.4575 369.020643) scale(0.1 -0.1)">
       <use xlink:href="#Palatino-31"/>
       <use xlink:href="#Palatino-35" x="49.999985"/>
       <use xlink:href="#Palatino-35" x="99.999969"/>
       <use xlink:href="#Palatino-30" x="149.999954"/>
       <use xlink:href="#Palatino-30" x="199.999939"/>
       <use xlink:href="#Palatino-30" x="249.999924"/>
      </g>
     </g>
    </g>
    <g id="ytick_13">
     <g id="line2d_30">
      <g>
       <use xlink:href="#m5c162f45b4" x="62.4575" y="337.532258" style="stroke: #000000; stroke-width: 0.8"/>
      </g>
     </g>
     <g id="text_35">
      <!-- 160000 -->
      <g transform="translate(25.4575 341.15257) scale(0.1 -0.1)">
       <defs>
        <path id="Palatino-36" d="M 1549 -128 
Q 1178 -128 918 0 
Q 659 128 506 390 
Q 352 653 278 947 
Q 205 1242 205 1562 
Q 205 2093 361 2550 
Q 518 3008 832 3386 
Q 1146 3763 1542 4016 
Q 1939 4269 2426 4397 
L 2662 4301 
L 2662 4250 
Q 2246 4122 1923 3933 
Q 1600 3744 1376 3488 
Q 1152 3232 1017 2886 
Q 883 2541 838 2106 
Q 883 2138 924 2170 
Q 966 2202 1005 2234 
Q 1024 2246 1043 2262 
Q 1062 2278 1082 2298 
Q 1101 2310 1120 2326 
Q 1139 2342 1158 2355 
Q 1235 2406 1312 2451 
Q 1389 2496 1472 2534 
Q 1555 2566 1654 2585 
Q 1754 2605 1869 2605 
Q 2138 2605 2346 2518 
Q 2554 2432 2701 2259 
Q 2848 2086 2921 1868 
Q 2995 1651 2995 1382 
Q 2995 1050 2889 778 
Q 2784 506 2573 294 
Q 2362 77 2106 -25 
Q 1850 -128 1549 -128 
L 1549 -128 
L 1549 -128 
z
M 1606 2234 
Q 1581 2221 1558 2217 
Q 1536 2214 1510 2214 
Q 1485 2208 1462 2205 
Q 1440 2202 1414 2195 
Q 1325 2176 1238 2137 
Q 1152 2099 1069 2042 
Q 986 1984 928 1917 
Q 870 1850 838 1766 
Q 826 1734 816 1699 
Q 806 1664 800 1632 
Q 794 1600 790 1565 
Q 787 1530 787 1498 
Q 787 1491 787 1481 
Q 787 1472 787 1466 
Q 787 1453 787 1446 
Q 787 1440 787 1427 
Q 787 1421 787 1411 
Q 787 1402 787 1395 
Q 787 1382 787 1376 
Q 787 1370 787 1357 
Q 787 1350 787 1347 
Q 787 1344 787 1338 
Q 787 1331 787 1328 
Q 787 1325 787 1318 
Q 787 1299 787 1280 
Q 787 1261 787 1242 
Q 787 1216 790 1197 
Q 794 1178 794 1158 
Q 794 1114 797 1072 
Q 800 1030 806 992 
Q 832 819 889 662 
Q 947 506 1037 358 
Q 1126 218 1276 144 
Q 1427 70 1626 70 
Q 1824 70 1968 144 
Q 2112 218 2208 358 
Q 2304 506 2361 662 
Q 2419 819 2438 992 
Q 2438 1011 2438 1033 
Q 2438 1056 2438 1082 
Q 2438 1094 2438 1104 
Q 2438 1114 2445 1126 
Q 2445 1133 2445 1145 
Q 2445 1158 2445 1171 
Q 2445 1370 2397 1552 
Q 2349 1734 2253 1894 
Q 2157 2061 1993 2141 
Q 1830 2221 1606 2221 
L 1606 2234 
L 1606 2234 
z
" transform="scale(0.015625)"/>
       </defs>
       <use xlink:href="#Palatino-31"/>
       <use xlink:href="#Palatino-36" x="49.999985"/>
       <use xlink:href="#Palatino-30" x="99.999969"/>
       <use xlink:href="#Palatino-30" x="149.999954"/>
       <use xlink:href="#Palatino-30" x="199.999939"/>
       <use xlink:href="#Palatino-30" x="249.999924"/>
      </g>
     </g>
    </g>
    <g id="ytick_14">
     <g id="line2d_31">
      <g>
       <use xlink:href="#m5c162f45b4" x="62.4575" y="309.664185" style="stroke: #000000; stroke-width: 0.8"/>
      </g>
     </g>
     <g id="text_36">
      <!-- 165000 -->
      <g transform="translate(25.4575 313.284497) scale(0.1 -0.1)">
       <use xlink:href="#Palatino-31"/>
       <use xlink:href="#Palatino-36" x="49.999985"/>
       <use xlink:href="#Palatino-35" x="99.999969"/>
       <use xlink:href="#Palatino-30" x="149.999954"/>
       <use xlink:href="#Palatino-30" x="199.999939"/>
       <use xlink:href="#Palatino-30" x="249.999924"/>
      </g>
     </g>
    </g>
    <g id="ytick_15">
     <g id="line2d_32">
      <g>
       <use xlink:href="#m5c162f45b4" x="62.4575" y="281.796111" style="stroke: #000000; stroke-width: 0.8"/>
      </g>
     </g>
     <g id="text_37">
      <!-- 170000 -->
      <g transform="translate(25.4575 285.416424) scale(0.1 -0.1)">
       <use xlink:href="#Palatino-31"/>
       <use xlink:href="#Palatino-37" x="49.999985"/>
       <use xlink:href="#Palatino-30" x="99.999969"/>
       <use xlink:href="#Palatino-30" x="149.999954"/>
       <use xlink:href="#Palatino-30" x="199.999939"/>
       <use xlink:href="#Palatino-30" x="249.999924"/>
      </g>
     </g>
    </g>
    <g id="ytick_16">
     <g id="line2d_33">
      <g>
       <use xlink:href="#m5c162f45b4" x="62.4575" y="253.928038" style="stroke: #000000; stroke-width: 0.8"/>
      </g>
     </g>
     <g id="text_38">
      <!-- 175000 -->
      <g transform="translate(25.4575 257.548351) scale(0.1 -0.1)">
       <use xlink:href="#Palatino-31"/>
       <use xlink:href="#Palatino-37" x="49.999985"/>
       <use xlink:href="#Palatino-35" x="99.999969"/>
       <use xlink:href="#Palatino-30" x="149.999954"/>
       <use xlink:href="#Palatino-30" x="199.999939"/>
       <use xlink:href="#Palatino-30" x="249.999924"/>
      </g>
     </g>
    </g>
    <g id="text_39">
     <!-- Concurrent Users Gas Used -->
     <g transform="translate(18.36375 379.608672) rotate(-90) scale(0.11 -0.11)">
      <defs>
       <path id="PalatinoLinotype-Roman-47" d="M 4681 1703 
L 4681 1609 
L 4669 1572 
L 4516 1481 
Q 4459 1447 4450 1428 
Q 4441 1409 4427 1242 
Q 4413 1075 4413 834 
Q 4413 563 4447 244 
L 4428 213 
Q 3572 -116 2669 -116 
Q 1975 -116 1415 146 
Q 856 409 528 925 
Q 200 1441 200 2150 
Q 200 3231 939 3868 
Q 1678 4506 2869 4506 
Q 3744 4506 4441 4209 
L 4463 4175 
Q 4406 3966 4331 3297 
L 4306 3275 
L 4163 3275 
L 4138 3300 
L 4122 3631 
Q 4113 3794 4102 3822 
Q 4091 3850 4034 3895 
Q 3978 3941 3745 4039 
Q 3513 4138 3278 4183 
Q 3044 4228 2775 4228 
Q 2203 4228 1762 3990 
Q 1322 3753 1098 3298 
Q 875 2844 875 2288 
Q 875 1713 1115 1217 
Q 1356 722 1806 444 
Q 2256 166 2853 166 
Q 3113 166 3383 217 
Q 3653 269 3828 363 
Q 3856 463 3856 766 
L 3856 1113 
Q 3856 1359 3825 1420 
Q 3794 1481 3670 1506 
Q 3547 1531 3138 1538 
L 3109 1566 
L 3109 1703 
L 3138 1731 
L 3328 1725 
Q 3819 1709 4128 1709 
Q 4306 1709 4650 1728 
L 4681 1703 
z
" transform="scale(0.015625)"/>
       <path id="PalatinoLinotype-Roman-64" d="M 2103 4238 
L 2103 4369 
L 2128 4397 
Q 2725 4466 3134 4628 
L 3194 4591 
Q 3159 4231 3159 3150 
L 3159 1103 
Q 3159 788 3170 552 
Q 3181 316 3209 272 
Q 3238 228 3302 200 
Q 3366 172 3666 147 
L 3694 122 
L 3694 3 
L 3666 -25 
Q 3328 -3 3141 -3 
Q 2972 -3 2659 -25 
L 2625 9 
Q 2634 316 2634 438 
Q 2634 453 2638 556 
Q 2466 431 2294 278 
Q 2041 53 1963 -3 
Q 1819 -75 1553 -75 
Q 1122 -75 820 137 
Q 519 350 391 679 
Q 263 1009 263 1356 
Q 263 1709 395 2036 
Q 528 2363 773 2513 
Q 1019 2663 1308 2823 
Q 1597 2984 1881 2984 
Q 2278 2984 2638 2788 
L 2625 3484 
Q 2619 3847 2606 3989 
Q 2594 4131 2575 4157 
Q 2556 4184 2511 4196 
Q 2466 4209 2131 4209 
L 2103 4238 
z
M 2638 2253 
Q 2444 2472 2208 2587 
Q 1972 2703 1734 2703 
Q 1472 2703 1245 2561 
Q 1019 2419 919 2139 
Q 819 1859 819 1531 
Q 819 984 1095 653 
Q 1372 322 1791 322 
Q 2019 322 2195 426 
Q 2372 531 2486 709 
Q 2600 888 2619 1066 
Q 2638 1244 2638 1719 
L 2638 2253 
z
" transform="scale(0.015625)"/>
      </defs>
      <use xlink:href="#PalatinoLinotype-Roman-43"/>
      <use xlink:href="#PalatinoLinotype-Roman-6f" x="70.898438"/>
      <use xlink:href="#PalatinoLinotype-Roman-6e" x="125.488281"/>
      <use xlink:href="#PalatinoLinotype-Roman-63" x="183.691406"/>
      <use xlink:href="#PalatinoLinotype-Roman-75" x="228.076172"/>
      <use xlink:href="#PalatinoLinotype-Roman-72" x="288.378906"/>
      <use xlink:href="#PalatinoLinotype-Roman-72" x="327.880859"/>
      <use xlink:href="#PalatinoLinotype-Roman-65" x="367.382812"/>
      <use xlink:href="#PalatinoLinotype-Roman-6e" x="415.283203"/>
      <use xlink:href="#PalatinoLinotype-Roman-74" x="473.486328"/>
      <use xlink:href="#PalatinoLinotype-Roman-20" x="506.103516"/>
      <use xlink:href="#PalatinoLinotype-Roman-55" x="531.103516"/>
      <use xlink:href="#PalatinoLinotype-Roman-73" x="608.886719"/>
      <use xlink:href="#PalatinoLinotype-Roman-65" x="651.269531"/>
      <use xlink:href="#PalatinoLinotype-Roman-72" x="699.169922"/>
      <use xlink:href="#PalatinoLinotype-Roman-73" x="738.671875"/>
      <use xlink:href="#PalatinoLinotype-Roman-20" x="781.054688"/>
      <use xlink:href="#PalatinoLinotype-Roman-47" x="806.054688"/>
      <use xlink:href="#PalatinoLinotype-Roman-61" x="882.373047"/>
      <use xlink:href="#PalatinoLinotype-Roman-73" x="932.373047"/>
      <use xlink:href="#PalatinoLinotype-Roman-20" x="974.755859"/>
      <use xlink:href="#PalatinoLinotype-Roman-55" x="999.755859"/>
      <use xlink:href="#PalatinoLinotype-Roman-73" x="1077.539062"/>
      <use xlink:href="#PalatinoLinotype-Roman-65" x="1119.921875"/>
      <use xlink:href="#PalatinoLinotype-Roman-64" x="1167.822266"/>
     </g>
    </g>
   </g>
   <g id="line2d_34">
    <path d="M 72.631705 381.965114 
L 123.502727 243.182109 
L 174.37375 242.067386 
L 225.244773 367.763544 
L 276.115795 243.182109 
" clip-path="url(#pbfb406e208)" style="fill: none; stroke: #1f77b4; stroke-width: 1.5; stroke-linecap: square"/>
   </g>
   <g id="patch_13">
    <path d="M 62.4575 388.96 
L 62.4575 235.0725 
" style="fill: none; stroke: #000000; stroke-width: 0.8; stroke-linejoin: miter; stroke-linecap: square"/>
   </g>
   <g id="patch_14">
    <path d="M 286.29 388.96 
L 286.29 235.0725 
" style="fill: none; stroke: #000000; stroke-width: 0.8; stroke-linejoin: miter; stroke-linecap: square"/>
   </g>
   <g id="patch_15">
    <path d="M 62.4575 388.96 
L 286.29 388.96 
" style="fill: none; stroke: #000000; stroke-width: 0.8; stroke-linejoin: miter; stroke-linecap: square"/>
   </g>
   <g id="patch_16">
    <path d="M 62.4575 235.0725 
L 286.29 235.0725 
" style="fill: none; stroke: #000000; stroke-width: 0.8; stroke-linejoin: miter; stroke-linecap: square"/>
   </g>
   <g id="text_40">
    <!-- Concurrent Users Gas Used vs User Count -->
    <g transform="translate(68.369844 229.0725) scale(0.11 -0.11)">
     <defs>
      <path id="PalatinoLinotype-Bold-47" d="M 5025 1578 
L 4994 1544 
Q 4800 1497 4769 1414 
Q 4738 1331 4738 781 
Q 4738 516 4763 256 
Q 3719 -138 2869 -138 
Q 1750 -138 1058 489 
Q 366 1116 366 2197 
Q 366 3606 1588 4206 
Q 2147 4481 3009 4481 
Q 3509 4481 4022 4372 
Q 4444 4281 4688 4166 
L 4716 4109 
Q 4634 3834 4581 3153 
L 4547 3122 
L 4359 3122 
L 4328 3153 
Q 4328 3213 4315 3398 
Q 4303 3584 4284 3659 
Q 4147 3847 3816 3978 
Q 3459 4116 3047 4116 
Q 1941 4116 1519 3222 
Q 1325 2809 1325 2266 
Q 1325 1397 1788 825 
Q 2269 231 3041 231 
Q 3450 231 3831 406 
Q 3853 625 3853 1006 
Q 3853 1316 3831 1381 
Q 3813 1431 3713 1453 
Q 3628 1472 3184 1500 
L 3150 1531 
L 3150 1728 
L 3184 1759 
Q 3638 1747 4134 1750 
Q 4422 1753 4994 1759 
L 5025 1728 
L 5025 1578 
z
" transform="scale(0.015625)"/>
      <path id="PalatinoLinotype-Bold-64" d="M 3750 9 
L 3719 -22 
Q 3413 0 3166 0 
Q 2931 0 2531 -22 
L 2503 0 
Q 2516 153 2516 513 
Q 2403 419 2194 225 
Q 1934 -16 1856 -63 
Q 1756 -109 1531 -109 
Q 997 -109 669 294 
Q 341 697 341 1338 
Q 341 1959 594 2306 
Q 659 2397 981 2628 
Q 1356 2897 1528 2969 
Q 1678 3031 1909 3031 
Q 2234 3031 2516 2894 
L 2516 3069 
Q 2516 3891 2475 4038 
Q 2453 4119 2347 4138 
Q 2297 4147 2059 4156 
L 2028 4191 
L 2028 4363 
L 2059 4397 
Q 2659 4459 3269 4656 
L 3338 4619 
Q 3338 4606 3325 4309 
Q 3297 3638 3297 2291 
L 3297 1281 
Q 3297 403 3338 316 
Q 3363 263 3406 250 
Q 3475 228 3719 209 
L 3750 178 
L 3750 9 
z
M 2516 1641 
L 2516 2228 
Q 2291 2497 2084 2572 
Q 1944 2622 1784 2622 
Q 1353 2622 1228 2178 
Q 1159 1931 1159 1628 
Q 1159 981 1463 669 
Q 1622 503 1891 503 
Q 2113 503 2303 644 
Q 2475 769 2506 913 
Q 2516 956 2516 1641 
z
" transform="scale(0.015625)"/>
     </defs>
     <use xlink:href="#PalatinoLinotype-Bold-43"/>
     <use xlink:href="#PalatinoLinotype-Bold-6f" x="72.216797"/>
     <use xlink:href="#PalatinoLinotype-Bold-6e" x="127.832031"/>
     <use xlink:href="#PalatinoLinotype-Bold-63" x="188.916016"/>
     <use xlink:href="#PalatinoLinotype-Bold-75" x="233.300781"/>
     <use xlink:href="#PalatinoLinotype-Bold-72" x="294.384766"/>
     <use xlink:href="#PalatinoLinotype-Bold-72" x="333.300781"/>
     <use xlink:href="#PalatinoLinotype-Bold-65" x="372.216797"/>
     <use xlink:href="#PalatinoLinotype-Bold-6e" x="422.216797"/>
     <use xlink:href="#PalatinoLinotype-Bold-74" x="483.300781"/>
     <use xlink:href="#PalatinoLinotype-Bold-20" x="516.601562"/>
     <use xlink:href="#PalatinoLinotype-Bold-55" x="541.601562"/>
     <use xlink:href="#PalatinoLinotype-Bold-73" x="619.384766"/>
     <use xlink:href="#PalatinoLinotype-Bold-65" x="663.769531"/>
     <use xlink:href="#PalatinoLinotype-Bold-72" x="713.769531"/>
     <use xlink:href="#PalatinoLinotype-Bold-73" x="752.685547"/>
     <use xlink:href="#PalatinoLinotype-Bold-20" x="797.070312"/>
     <use xlink:href="#PalatinoLinotype-Bold-47" x="822.070312"/>
     <use xlink:href="#PalatinoLinotype-Bold-61" x="905.371094"/>
     <use xlink:href="#PalatinoLinotype-Bold-73" x="955.371094"/>
     <use xlink:href="#PalatinoLinotype-Bold-20" x="999.755859"/>
     <use xlink:href="#PalatinoLinotype-Bold-55" x="1024.755859"/>
     <use xlink:href="#PalatinoLinotype-Bold-73" x="1102.539062"/>
     <use xlink:href="#PalatinoLinotype-Bold-65" x="1146.923828"/>
     <use xlink:href="#PalatinoLinotype-Bold-64" x="1196.923828"/>
     <use xlink:href="#PalatinoLinotype-Bold-20" x="1258.007812"/>
     <use xlink:href="#PalatinoLinotype-Bold-76" x="1283.007812"/>
     <use xlink:href="#PalatinoLinotype-Bold-73" x="1338.574219"/>
     <use xlink:href="#PalatinoLinotype-Bold-20" x="1382.958984"/>
     <use xlink:href="#PalatinoLinotype-Bold-55" x="1407.958984"/>
     <use xlink:href="#PalatinoLinotype-Bold-73" x="1485.742188"/>
     <use xlink:href="#PalatinoLinotype-Bold-65" x="1530.126953"/>
     <use xlink:href="#PalatinoLinotype-Bold-72" x="1580.126953"/>
     <use xlink:href="#PalatinoLinotype-Bold-20" x="1619.042969"/>
     <use xlink:href="#PalatinoLinotype-Bold-43" x="1644.042969"/>
     <use xlink:href="#PalatinoLinotype-Bold-6f" x="1716.259766"/>
     <use xlink:href="#PalatinoLinotype-Bold-75" x="1771.875"/>
     <use xlink:href="#PalatinoLinotype-Bold-6e" x="1832.958984"/>
     <use xlink:href="#PalatinoLinotype-Bold-74" x="1894.042969"/>
    </g>
   </g>
  </g>
 </g>
 <defs>
  <clipPath id="p50c1cdc6ce">
   <rect x="62.4575" y="24.4725" width="223.8325" height="153.8875"/>
  </clipPath>
  <clipPath id="pf59df2b7cf">
   <rect x="341.3675" y="24.4725" width="223.8325" height="153.8875"/>
  </clipPath>
  <clipPath id="pbfb406e208">
   <rect x="62.4575" y="235.0725" width="223.8325" height="153.8875"/>
  </clipPath>
 </defs>
</svg>
